G04 Layer_Physical_Order=1*
G04 Layer_Color=255*
%FSLAX44Y44*%
%MOMM*%
G71*
G01*
G75*
%ADD10C,0.8890*%
%ADD11C,1.2700*%
%ADD12C,3.0480*%
%ADD13C,1.7780*%
%ADD14C,3.8100*%
%ADD15R,3.8100X3.8100*%
%ADD16R,2.2860X1.5240*%
%ADD17O,2.2860X1.5240*%
%ADD18O,2.5400X1.6764*%
%ADD19R,1.6510X2.5400*%
%ADD20O,1.6510X2.5400*%
%ADD21C,1.9050*%
%ADD22R,1.9050X1.9050*%
%ADD23R,1.5000X1.5000*%
%ADD24C,1.5000*%
%ADD25O,2.5400X1.7780*%
%ADD26R,2.5400X1.7780*%
%ADD27C,1.8000*%
%ADD28C,1.7018*%
%ADD29R,1.9050X1.9050*%
%ADD30R,2.5400X2.5400*%
%ADD31C,2.5400*%
%ADD32R,2.5400X4.0640*%
%ADD33R,4.0640X2.5400*%
%ADD34O,1.6510X2.2860*%
%ADD35O,1.5240X2.1590*%
%ADD36C,2.0320*%
G36*
X1121059Y1106943D02*
X1121057Y1106932D01*
Y11529D01*
X11529D01*
Y1107884D01*
X11684Y1107948D01*
X1120235D01*
X1121059Y1106943D01*
D02*
G37*
%LPC*%
G36*
X218694Y1061843D02*
X213715Y1061352D01*
X208927Y1059900D01*
X204514Y1057542D01*
X200647Y1054367D01*
X197472Y1050500D01*
X195114Y1046087D01*
X193661Y1041299D01*
X193171Y1036320D01*
X193661Y1031341D01*
X195114Y1026553D01*
X197472Y1022140D01*
X200647Y1018273D01*
X204514Y1015098D01*
X208927Y1012740D01*
X213715Y1011288D01*
X218694Y1010797D01*
X223673Y1011288D01*
X228461Y1012740D01*
X232874Y1015098D01*
X236741Y1018273D01*
X239916Y1022140D01*
X242274Y1026553D01*
X243727Y1031341D01*
X244217Y1036320D01*
X243727Y1041299D01*
X242274Y1046087D01*
X239916Y1050500D01*
X236741Y1054367D01*
X232874Y1057542D01*
X228461Y1059900D01*
X223673Y1061352D01*
X218694Y1061843D01*
D02*
G37*
G36*
X96774D02*
X91795Y1061352D01*
X87007Y1059900D01*
X82594Y1057542D01*
X78727Y1054367D01*
X75553Y1050500D01*
X73194Y1046087D01*
X71741Y1041299D01*
X71251Y1036320D01*
X71741Y1031341D01*
X73194Y1026553D01*
X75553Y1022140D01*
X78727Y1018273D01*
X82594Y1015098D01*
X87007Y1012740D01*
X91795Y1011288D01*
X96774Y1010797D01*
X101753Y1011288D01*
X106541Y1012740D01*
X110954Y1015098D01*
X114821Y1018273D01*
X117996Y1022140D01*
X120354Y1026553D01*
X121806Y1031341D01*
X122297Y1036320D01*
X121806Y1041299D01*
X120354Y1046087D01*
X117996Y1050500D01*
X114821Y1054367D01*
X110954Y1057542D01*
X106541Y1059900D01*
X101753Y1061352D01*
X96774Y1061843D01*
D02*
G37*
G36*
X638048Y1026494D02*
X597662D01*
X594426Y1026175D01*
X591313Y1025231D01*
X588445Y1023698D01*
X585931Y1021635D01*
X576787Y1012491D01*
X574724Y1009977D01*
X573191Y1007109D01*
X572247Y1003997D01*
X571928Y1000760D01*
Y991056D01*
X571452Y990886D01*
X570658Y990773D01*
X562149Y999283D01*
X559635Y1001346D01*
X556767Y1002879D01*
X553655Y1003823D01*
X551173Y1004068D01*
X550667Y1004147D01*
X548767Y1004193D01*
Y1010412D01*
X511937D01*
Y1001680D01*
X510798Y1001118D01*
X510396Y1001426D01*
X507770Y1002514D01*
X506222Y1002718D01*
Y987552D01*
Y972386D01*
X507770Y972590D01*
X510396Y973678D01*
X510798Y973986D01*
X511937Y973424D01*
Y964692D01*
X542464D01*
Y952476D01*
X541369Y950427D01*
X540280Y946836D01*
X539912Y943102D01*
X540280Y939368D01*
X540841Y937517D01*
X540084Y936497D01*
X538034D01*
X536855Y937465D01*
X533987Y938998D01*
X530874Y939942D01*
X527638Y940261D01*
X508174D01*
X504938Y939942D01*
X501825Y938998D01*
X498957Y937465D01*
X496443Y935402D01*
X494538Y933497D01*
X482680Y921639D01*
X480617Y919125D01*
X479084Y916257D01*
X478140Y913145D01*
X477821Y909908D01*
Y908117D01*
X476551Y907686D01*
X475711Y908781D01*
X473592Y910406D01*
X473773Y906978D01*
X468376D01*
Y900176D01*
Y893374D01*
X473773D01*
X473713Y893258D01*
X473659Y893034D01*
X473612Y892702D01*
X473535Y891715D01*
X473492Y889869D01*
X475711Y891571D01*
X476551Y892666D01*
X477821Y892235D01*
Y881775D01*
X468362Y872316D01*
X276033D01*
X275490Y873464D01*
X275803Y873846D01*
X277690Y877376D01*
X278852Y881207D01*
X279244Y885190D01*
X278852Y889173D01*
X277690Y893004D01*
X275803Y896534D01*
X273264Y899628D01*
X270170Y902167D01*
X266640Y904054D01*
X262809Y905216D01*
X258826Y905608D01*
X254843Y905216D01*
X251012Y904054D01*
X247482Y902167D01*
X244745Y899921D01*
X241196D01*
X240434Y901191D01*
X242274Y904633D01*
X243727Y909421D01*
X244217Y914400D01*
X243727Y919379D01*
X242274Y924167D01*
X239916Y928580D01*
X236741Y932447D01*
X232874Y935621D01*
X228461Y937980D01*
X223673Y939433D01*
X218694Y939923D01*
X213715Y939433D01*
X208927Y937980D01*
X204514Y935621D01*
X200647Y932447D01*
X197472Y928580D01*
X195114Y924167D01*
X193661Y919379D01*
X193171Y914400D01*
X193661Y909421D01*
X195114Y904633D01*
X197472Y900220D01*
X200647Y896353D01*
X203963Y893631D01*
Y890778D01*
X204465Y886965D01*
X205937Y883412D01*
X208278Y880362D01*
X213866Y874774D01*
X215413Y873586D01*
X214982Y872316D01*
X178386D01*
X177843Y873464D01*
X178955Y874820D01*
X181314Y879233D01*
X182766Y884021D01*
X183257Y889000D01*
X182766Y893979D01*
X181314Y898767D01*
X178955Y903180D01*
X175781Y907047D01*
X171914Y910221D01*
X167501Y912580D01*
X162713Y914033D01*
X157734Y914523D01*
X152755Y914033D01*
X147967Y912580D01*
X143554Y910221D01*
X139687Y907047D01*
X136512Y903180D01*
X134154Y898767D01*
X132702Y893979D01*
X132211Y889000D01*
X132702Y884021D01*
X134154Y879233D01*
X136512Y874820D01*
X137626Y873464D01*
X137083Y872316D01*
X111505D01*
Y891133D01*
X111550Y891452D01*
X111645Y891854D01*
X111792Y892295D01*
X112007Y892789D01*
X112305Y893346D01*
X112703Y893968D01*
X113215Y894654D01*
X113852Y895400D01*
X114575Y896150D01*
X114821Y896353D01*
X117996Y900220D01*
X120354Y904633D01*
X121806Y909421D01*
X122297Y914400D01*
X121806Y919379D01*
X120354Y924167D01*
X117996Y928580D01*
X114821Y932447D01*
X110954Y935621D01*
X106541Y937980D01*
X101753Y939433D01*
X96774Y939923D01*
X91795Y939433D01*
X87007Y937980D01*
X82594Y935621D01*
X78727Y932447D01*
X75553Y928580D01*
X73194Y924167D01*
X71741Y919379D01*
X71251Y914400D01*
X71741Y909421D01*
X73194Y904633D01*
X75553Y900220D01*
X78727Y896353D01*
X78973Y896150D01*
X79696Y895400D01*
X80333Y894654D01*
X80845Y893968D01*
X81243Y893345D01*
X81541Y892789D01*
X81756Y892295D01*
X81903Y891854D01*
X81998Y891452D01*
X82043Y891133D01*
Y872291D01*
X79060Y871997D01*
X75947Y871053D01*
X73079Y869520D01*
X70565Y867457D01*
X34497Y831389D01*
X32434Y828875D01*
X30901Y826007D01*
X29957Y822895D01*
X29638Y819658D01*
Y704088D01*
Y149098D01*
X29957Y145862D01*
X30901Y142749D01*
X32434Y139881D01*
X34497Y137367D01*
X72851Y99013D01*
X75365Y96950D01*
X78233Y95417D01*
X81346Y94473D01*
X84582Y94154D01*
X211752D01*
X212405Y93065D01*
X212266Y92806D01*
X211213Y89335D01*
X210858Y85725D01*
Y79375D01*
X211213Y75765D01*
X212266Y72294D01*
X213976Y69095D01*
X216278Y66291D01*
X219082Y63989D01*
X222281Y62279D01*
X225752Y61226D01*
X229362Y60871D01*
X232972Y61226D01*
X236443Y62279D01*
X239642Y63989D01*
X242446Y66291D01*
X242540Y66405D01*
X244836Y64520D01*
X247925Y62869D01*
X251276Y61852D01*
X254762Y61509D01*
X258248Y61852D01*
X261599Y62869D01*
X264688Y64520D01*
X264922Y64712D01*
X265156Y64520D01*
X268245Y62869D01*
X271597Y61852D01*
X275082Y61509D01*
X278568Y61852D01*
X281919Y62869D01*
X285008Y64520D01*
X287715Y66742D01*
X289937Y69449D01*
X290459Y70425D01*
X292750Y69476D01*
X294132Y69295D01*
Y82550D01*
X296672D01*
Y69295D01*
X298054Y69476D01*
X300526Y70500D01*
X302471Y71993D01*
X302679Y72043D01*
X303113Y72007D01*
X303981Y71780D01*
X305416Y69095D01*
X307718Y66291D01*
X310522Y63989D01*
X313721Y62279D01*
X317192Y61226D01*
X320802Y60871D01*
X324412Y61226D01*
X327883Y62279D01*
X331082Y63989D01*
X333886Y66291D01*
X336188Y69095D01*
X337898Y72294D01*
X338951Y75765D01*
X339306Y79375D01*
Y85725D01*
X338951Y89335D01*
X337898Y92806D01*
X337309Y93908D01*
X337962Y94997D01*
X791972D01*
X795785Y95499D01*
X799337Y96971D01*
X802388Y99312D01*
X815596Y112520D01*
X817937Y115570D01*
X819409Y119123D01*
X819911Y122936D01*
Y193230D01*
X819916Y193305D01*
X819935Y193451D01*
X821627Y195513D01*
X822169Y196528D01*
X823410Y196796D01*
X824495Y195963D01*
X827430Y194748D01*
X829310Y194500D01*
Y206502D01*
Y218504D01*
X827430Y218256D01*
X824495Y217041D01*
X823410Y216208D01*
X822169Y216476D01*
X821627Y217491D01*
X819167Y220489D01*
X816169Y222949D01*
X812750Y224777D01*
X809039Y225902D01*
X805180Y226282D01*
X801321Y225902D01*
X797610Y224777D01*
X795600Y223702D01*
X794511Y224355D01*
Y239262D01*
X802392Y247143D01*
X930402D01*
X934215Y247645D01*
X937767Y249116D01*
X940818Y251458D01*
X965964Y276604D01*
X968306Y279655D01*
X969777Y283207D01*
X970279Y287020D01*
Y572516D01*
X969777Y576329D01*
X968306Y579882D01*
X965964Y582932D01*
X938024Y610872D01*
X934974Y613214D01*
X931421Y614685D01*
X927608Y615187D01*
X819792D01*
Y618116D01*
X810036D01*
X809602Y618173D01*
X809167Y618116D01*
X795097D01*
X794662Y618173D01*
X794228Y618116D01*
X784472D01*
Y615187D01*
X737506D01*
X735667Y615328D01*
X735065Y615413D01*
X733374Y615775D01*
X732879Y615922D01*
X732327Y616119D01*
X731836Y616326D01*
X731114Y616684D01*
X730807Y616789D01*
X730688Y616852D01*
X730480Y617560D01*
X730477Y618291D01*
X730892Y618610D01*
X731960Y620001D01*
X730537Y619906D01*
X729279Y619683D01*
X728198Y619426D01*
X727293Y619136D01*
X726564Y618810D01*
Y624586D01*
X713108D01*
Y618810D01*
X712733Y618942D01*
X712131Y619061D01*
X711301Y619165D01*
X708956Y619332D01*
X708215Y619345D01*
X708780Y618610D01*
X709368Y618159D01*
X708984Y616852D01*
X706100Y615311D01*
X703393Y613089D01*
X701171Y610382D01*
X699520Y607293D01*
X698503Y603941D01*
X698160Y600456D01*
X698503Y596970D01*
X699520Y593619D01*
X701171Y590530D01*
X702653Y588725D01*
X703345Y587756D01*
X702653Y586787D01*
X701171Y584982D01*
X699520Y581893D01*
X698503Y578541D01*
X698160Y575056D01*
X698503Y571571D01*
X699520Y568219D01*
X701171Y565130D01*
X702653Y563325D01*
X703345Y562356D01*
X702653Y561387D01*
X701171Y559582D01*
X699520Y556493D01*
X698503Y553142D01*
X698160Y549656D01*
X698503Y546171D01*
X699520Y542819D01*
X701171Y539730D01*
X702653Y537925D01*
X703345Y536956D01*
X702653Y535987D01*
X701171Y534182D01*
X699520Y531093D01*
X698503Y527742D01*
X698160Y524256D01*
X698503Y520770D01*
X699520Y517419D01*
X701171Y514330D01*
X702653Y512525D01*
X703345Y511556D01*
X702653Y510587D01*
X701171Y508782D01*
X699520Y505693D01*
X698503Y502341D01*
X698160Y498856D01*
X698503Y495370D01*
X699520Y492019D01*
X701171Y488930D01*
X702653Y487125D01*
X703345Y486156D01*
X702653Y485187D01*
X701171Y483382D01*
X699520Y480293D01*
X698503Y476941D01*
X698160Y473456D01*
X698503Y469971D01*
X699520Y466619D01*
X701171Y463530D01*
X702653Y461725D01*
X703345Y460756D01*
X702653Y459787D01*
X701171Y457982D01*
X699520Y454893D01*
X698503Y451541D01*
X698160Y448056D01*
X698503Y444571D01*
X699520Y441219D01*
X701171Y438130D01*
X702653Y436325D01*
X703345Y435356D01*
X702653Y434387D01*
X701171Y432582D01*
X699520Y429493D01*
X698503Y426142D01*
X698160Y422656D01*
X698503Y419170D01*
X699520Y415819D01*
X701171Y412730D01*
X702653Y410925D01*
X703345Y409956D01*
X702653Y408987D01*
X701171Y407182D01*
X699520Y404093D01*
X698503Y400742D01*
X698160Y397256D01*
X698503Y393770D01*
X699520Y390419D01*
X700889Y387857D01*
X700227Y386587D01*
X667004D01*
X663191Y386085D01*
X659639Y384613D01*
X656588Y382272D01*
X642364Y368048D01*
X640023Y364997D01*
X638551Y361445D01*
X638111Y358100D01*
X637022Y357634D01*
X636780Y357635D01*
X612142Y382272D01*
X609091Y384613D01*
X605539Y386085D01*
X601726Y386587D01*
X587045D01*
X586383Y387857D01*
X587752Y390419D01*
X588769Y393770D01*
X589112Y397256D01*
X588769Y400742D01*
X587752Y404093D01*
X586101Y407182D01*
X584619Y408987D01*
X583927Y409956D01*
X584619Y410925D01*
X586101Y412730D01*
X587752Y415819D01*
X588769Y419170D01*
X589112Y422656D01*
X588769Y426142D01*
X587752Y429493D01*
X586101Y432582D01*
X584619Y434387D01*
X583927Y435356D01*
X584619Y436325D01*
X586101Y438130D01*
X587752Y441219D01*
X588769Y444571D01*
X589112Y448056D01*
X588769Y451541D01*
X587752Y454893D01*
X586101Y457982D01*
X584619Y459787D01*
X583927Y460756D01*
X584619Y461725D01*
X586101Y463530D01*
X587752Y466619D01*
X588769Y469971D01*
X589112Y473456D01*
X588769Y476941D01*
X587752Y480293D01*
X586101Y483382D01*
X584619Y485187D01*
X583927Y486156D01*
X584619Y487125D01*
X586101Y488930D01*
X587752Y492019D01*
X588769Y495370D01*
X589112Y498856D01*
X588769Y502341D01*
X587752Y505693D01*
X586383Y508255D01*
X587045Y509525D01*
X591944D01*
X593031Y508338D01*
X592873Y506730D01*
X593233Y503070D01*
X594301Y499551D01*
X596034Y496308D01*
X598367Y493465D01*
X601210Y491132D01*
X604453Y489399D01*
X607972Y488331D01*
X611632Y487971D01*
X615292Y488331D01*
X618811Y489399D01*
X622054Y491132D01*
X623109Y491998D01*
X623121Y491999D01*
X654463D01*
X657139Y490569D01*
X660730Y489480D01*
X664464Y489112D01*
X672084D01*
X675818Y489480D01*
X679409Y490569D01*
X682719Y492338D01*
X685620Y494718D01*
X688000Y497619D01*
X689769Y500929D01*
X690858Y504520D01*
X691226Y508254D01*
X690858Y511988D01*
X689769Y515579D01*
X688000Y518889D01*
X685620Y521790D01*
X683514Y523518D01*
Y532384D01*
X679637D01*
X679445Y531460D01*
X679537Y530209D01*
X680026Y529177D01*
X680913Y528363D01*
X674722Y532384D01*
X668274D01*
Y533654D01*
D01*
Y532384D01*
X653034D01*
Y523518D01*
X650928Y521790D01*
X650659Y521461D01*
X623121D01*
X623109Y521462D01*
X622054Y522328D01*
X621278Y522743D01*
X609348Y534672D01*
X609094Y534868D01*
X609260Y536127D01*
X611124Y536898D01*
X613848Y538989D01*
X615292Y539131D01*
X618811Y540199D01*
X622054Y541932D01*
X624897Y544265D01*
X627230Y547108D01*
X628963Y550351D01*
X630031Y553870D01*
X630391Y557530D01*
X630209Y559384D01*
X631062Y560325D01*
X650099D01*
X651543Y559140D01*
X654853Y557371D01*
X658444Y556282D01*
X662178Y555914D01*
X669798D01*
X673532Y556282D01*
X677123Y557371D01*
X680433Y559140D01*
X683334Y561520D01*
X685714Y564421D01*
X687483Y567731D01*
X688572Y571321D01*
X688940Y575056D01*
X688572Y578791D01*
X687483Y582381D01*
X685714Y585691D01*
X683334Y588592D01*
X681228Y590320D01*
Y599186D01*
X665988D01*
X650748D01*
Y590320D01*
X650099Y589787D01*
X616966D01*
X613153Y589285D01*
X609600Y587813D01*
X606550Y585472D01*
X601216Y580138D01*
X598875Y577088D01*
X597403Y573535D01*
X596901Y569722D01*
Y569008D01*
X596034Y567952D01*
X594301Y564709D01*
X594203Y564387D01*
X585106D01*
X583268Y564528D01*
X582665Y564613D01*
X580974Y564975D01*
X580479Y565122D01*
X579927Y565318D01*
X579436Y565526D01*
X578714Y565884D01*
X578407Y565989D01*
X578288Y566052D01*
X578080Y566760D01*
X578077Y567491D01*
X578492Y567810D01*
X579366Y568948D01*
X576625Y568754D01*
X575621Y568535D01*
X574801Y568287D01*
X574164Y568010D01*
Y573786D01*
X560708D01*
Y568010D01*
X560067Y568287D01*
X559237Y568535D01*
X558218Y568754D01*
X557009Y568943D01*
X555389Y569101D01*
X556380Y567810D01*
X556968Y567359D01*
X556584Y566052D01*
X553700Y564511D01*
X550993Y562289D01*
X548771Y559582D01*
X547120Y556493D01*
X546103Y553142D01*
X545760Y549656D01*
X546103Y546171D01*
X547120Y542819D01*
X548771Y539730D01*
X550253Y537925D01*
X550945Y536956D01*
X550253Y535987D01*
X548771Y534182D01*
X547120Y531093D01*
X546103Y527742D01*
X545760Y524256D01*
X546103Y520770D01*
X547120Y517419D01*
X548489Y514857D01*
X547827Y513587D01*
X495618D01*
X495543Y513592D01*
X495397Y513611D01*
X493335Y515303D01*
X489916Y517131D01*
X486205Y518256D01*
X482346Y518636D01*
X478487Y518256D01*
X474776Y517131D01*
X471357Y515303D01*
X468359Y512843D01*
X465899Y509845D01*
X464071Y506426D01*
X462946Y502715D01*
X462566Y498856D01*
X462946Y494997D01*
X464071Y491286D01*
X465146Y489276D01*
X464493Y488187D01*
X406695D01*
X406533Y488193D01*
X405097Y489372D01*
X401787Y491141D01*
X398196Y492230D01*
X394462Y492598D01*
X390728Y492230D01*
X387137Y491141D01*
X383827Y489372D01*
X382402Y488203D01*
X382211Y488187D01*
X368859D01*
X368197Y489457D01*
X369566Y492019D01*
X370583Y495370D01*
X370926Y498856D01*
X370583Y502341D01*
X369566Y505693D01*
X367915Y508782D01*
X366433Y510587D01*
X365741Y511556D01*
X366433Y512525D01*
X367915Y514330D01*
X369566Y517419D01*
X370583Y520770D01*
X370926Y524256D01*
X370583Y527742D01*
X369566Y531093D01*
X368478Y533129D01*
X368276Y533617D01*
X368083Y533869D01*
X367915Y534182D01*
X367784Y534342D01*
X367680Y534533D01*
X367277Y535084D01*
X367147Y535310D01*
X366958Y535722D01*
X366738Y536334D01*
X366510Y537149D01*
X366296Y538166D01*
X366130Y539264D01*
X365878Y542473D01*
X365846Y544299D01*
X365840Y544340D01*
Y583866D01*
X377872D01*
Y571730D01*
X376777Y569681D01*
X375688Y566091D01*
X375320Y562356D01*
X375688Y558621D01*
X376777Y555031D01*
X378546Y551721D01*
X380926Y548820D01*
X383827Y546440D01*
X387137Y544671D01*
X390728Y543582D01*
X394462Y543214D01*
X398196Y543582D01*
X401787Y544671D01*
X405097Y546440D01*
X407998Y548820D01*
X410378Y551721D01*
X412147Y555031D01*
X413236Y558621D01*
X413604Y562356D01*
X413236Y566091D01*
X412147Y569681D01*
X411052Y571730D01*
Y583866D01*
X419274D01*
Y546330D01*
X418179Y544281D01*
X417090Y540690D01*
X416722Y536956D01*
X417090Y533222D01*
X418179Y529631D01*
X419948Y526321D01*
X422328Y523420D01*
X425229Y521040D01*
X428539Y519271D01*
X432130Y518182D01*
X435864Y517814D01*
X439599Y518182D01*
X443189Y519271D01*
X446499Y521040D01*
X449400Y523420D01*
X451780Y526321D01*
X453549Y529631D01*
X454638Y533222D01*
X455006Y536956D01*
X454638Y540690D01*
X453549Y544281D01*
X452454Y546330D01*
Y583866D01*
X468030D01*
X468591Y582727D01*
X468205Y582223D01*
X466925Y579133D01*
X466656Y577088D01*
X479298D01*
X486554D01*
Y582930D01*
X486756Y582785D01*
X487064Y582656D01*
X487477Y582541D01*
X487996Y582442D01*
X488620Y582359D01*
X490185Y582237D01*
X490384Y582232D01*
X490005Y582727D01*
X490566Y583866D01*
X546484D01*
X546525Y583860D01*
X556101Y583691D01*
X556103Y583691D01*
X556494Y582390D01*
X556380Y582302D01*
X556244Y582125D01*
X560708Y582102D01*
Y576326D01*
X574164D01*
Y582102D01*
X574267Y582114D01*
X574624Y582126D01*
X578617Y582140D01*
X578492Y582302D01*
X578109Y582596D01*
X578540Y583866D01*
X582422D01*
X585658Y584185D01*
X588771Y585129D01*
X591639Y586662D01*
X594153Y588725D01*
X640348Y634920D01*
X698652D01*
X698706Y634913D01*
X703139Y634876D01*
X707968Y634693D01*
X708680Y634626D01*
X709057Y633315D01*
X708780Y633102D01*
X708448Y632670D01*
X713108Y632902D01*
Y627126D01*
X726564D01*
Y632902D01*
X726573Y632963D01*
X726839Y633017D01*
X727361Y633065D01*
X730469Y633171D01*
X731113Y633175D01*
X731358Y634188D01*
X740977Y634666D01*
X1043940D01*
X1047177Y634985D01*
X1050289Y635929D01*
X1053157Y637462D01*
X1055671Y639525D01*
X1072435Y656289D01*
X1074498Y658803D01*
X1076031Y661671D01*
X1076975Y664783D01*
X1077294Y668020D01*
Y856996D01*
X1076975Y860232D01*
X1076031Y863345D01*
X1074498Y866213D01*
X1072435Y868727D01*
X1031795Y909367D01*
X1029281Y911430D01*
X1026413Y912963D01*
X1023300Y913907D01*
X1020064Y914226D01*
X948701D01*
X948674Y914230D01*
X946575Y914285D01*
X945896Y914345D01*
Y920496D01*
X936140D01*
X935705Y920553D01*
X935271Y920496D01*
X934642D01*
X934628Y920496D01*
X934626Y920496D01*
X887476D01*
Y953516D01*
X841756D01*
Y892556D01*
X884936D01*
Y874776D01*
X934626D01*
X934628Y874776D01*
X934642Y874776D01*
X935271D01*
X935705Y874719D01*
X936140Y874776D01*
X945896D01*
Y880927D01*
X946575Y880987D01*
X948674Y881042D01*
X948701Y881046D01*
X1013192D01*
X1044114Y850124D01*
Y674892D01*
X1042079Y672857D01*
X1041016Y673590D01*
X1041368Y677164D01*
X1040988Y681023D01*
X1039863Y684734D01*
X1038035Y688153D01*
X1036362Y690191D01*
X1036319Y690634D01*
Y827786D01*
X1035817Y831599D01*
X1034345Y835152D01*
X1032004Y838202D01*
X1005588Y864618D01*
X1002538Y866960D01*
X998985Y868431D01*
X995172Y868933D01*
X819030D01*
Y871862D01*
X809274D01*
X808839Y871919D01*
X808405Y871862D01*
X794335D01*
X793901Y871919D01*
X793466Y871862D01*
X793249D01*
X792934Y871873D01*
X792884Y871862D01*
X783710D01*
Y869187D01*
X737506D01*
X735667Y869328D01*
X735065Y869413D01*
X734567Y869520D01*
Y929102D01*
X736150Y931164D01*
X737621Y934717D01*
X738123Y938530D01*
Y969454D01*
X738128Y969529D01*
X738147Y969675D01*
X739839Y971737D01*
X741667Y975156D01*
X742792Y978867D01*
X743172Y982726D01*
X742792Y986585D01*
X741667Y990296D01*
X739839Y993715D01*
X737379Y996713D01*
X734381Y999173D01*
X730962Y1001001D01*
X727251Y1002126D01*
X723392Y1002506D01*
X719533Y1002126D01*
X715822Y1001001D01*
X712403Y999173D01*
X710692Y997769D01*
X708981Y999173D01*
X705562Y1001001D01*
X701851Y1002126D01*
X697992Y1002506D01*
X694133Y1002126D01*
X690422Y1001001D01*
X687003Y999173D01*
X684005Y996713D01*
X681545Y993715D01*
X681003Y992700D01*
X679762Y992432D01*
X678677Y993265D01*
X677273Y993846D01*
X677393Y993215D01*
X677593Y992452D01*
X677837Y991748D01*
X678126Y991104D01*
X678459Y990519D01*
X678837Y989994D01*
X679259Y989528D01*
X673862D01*
Y982726D01*
Y970724D01*
X675742Y970972D01*
X678677Y972187D01*
X679762Y973020D01*
X681003Y972752D01*
X681545Y971737D01*
X683218Y969699D01*
X683261Y969256D01*
Y943132D01*
X681678Y941069D01*
X680207Y937517D01*
X679705Y933704D01*
Y839216D01*
X680207Y835403D01*
X681678Y831851D01*
X684020Y828800D01*
X694180Y818640D01*
X697231Y816299D01*
X700609Y814899D01*
X701208Y813697D01*
X701127Y813501D01*
X699520Y810493D01*
X698503Y807141D01*
X698160Y803656D01*
X698503Y800171D01*
X699520Y796819D01*
X701171Y793730D01*
X702653Y791925D01*
X703345Y790956D01*
X702653Y789987D01*
X701171Y788182D01*
X699520Y785093D01*
X698503Y781741D01*
X698160Y778256D01*
X698503Y774771D01*
X699520Y771419D01*
X701171Y768330D01*
X702653Y766525D01*
X703345Y765556D01*
X702653Y764587D01*
X701171Y762782D01*
X699520Y759693D01*
X698503Y756341D01*
X698160Y752856D01*
X698503Y749370D01*
X699520Y746019D01*
X701171Y742930D01*
X702653Y741125D01*
X703345Y740156D01*
X702653Y739187D01*
X701171Y737382D01*
X699520Y734293D01*
X698503Y730941D01*
X698160Y727456D01*
X698503Y723970D01*
X699520Y720619D01*
X701171Y717530D01*
X702653Y715725D01*
X703345Y714756D01*
X702653Y713787D01*
X701171Y711982D01*
X699520Y708893D01*
X698503Y705542D01*
X698160Y702056D01*
X698503Y698570D01*
X699520Y695219D01*
X701171Y692130D01*
X702653Y690325D01*
X703345Y689356D01*
X702653Y688387D01*
X701171Y686582D01*
X699520Y683493D01*
X698503Y680142D01*
X698160Y676656D01*
X698503Y673170D01*
X699520Y669819D01*
X699865Y669173D01*
X699660Y668818D01*
X698999Y668100D01*
X665306D01*
Y890548D01*
X666401Y892597D01*
X667490Y896188D01*
X667858Y899922D01*
X667490Y903656D01*
X666401Y907247D01*
X665306Y909296D01*
Y935153D01*
X665639Y935777D01*
X666728Y939368D01*
X667096Y943102D01*
X666728Y946836D01*
X665639Y950427D01*
X665306Y951051D01*
Y971674D01*
X666445Y972235D01*
X666507Y972187D01*
X669442Y970972D01*
X671322Y970724D01*
Y982726D01*
Y989528D01*
X665925D01*
X666347Y989994D01*
X666725Y990519D01*
X667058Y991104D01*
X667347Y991748D01*
X667591Y992452D01*
X667791Y993215D01*
X667911Y993846D01*
X666507Y993265D01*
X665738Y992674D01*
X664528Y993063D01*
X664043Y994663D01*
X663782Y995151D01*
Y1000760D01*
X663463Y1003997D01*
X662519Y1007109D01*
X660986Y1009977D01*
X658923Y1012491D01*
X649779Y1021635D01*
X647265Y1023698D01*
X644397Y1025231D01*
X641284Y1026175D01*
X638048Y1026494D01*
D02*
G37*
G36*
X503682Y1002718D02*
X502134Y1002514D01*
X499508Y1001426D01*
X497253Y999696D01*
X495523Y997441D01*
X494784Y995658D01*
X494876Y995690D01*
X496368Y996336D01*
X497779Y997081D01*
X499110Y997925D01*
X500361Y998868D01*
Y988822D01*
X503682D01*
Y1002718D01*
D02*
G37*
G36*
Y986282D02*
X500361D01*
Y976236D01*
X499110Y977179D01*
X497779Y978023D01*
X496368Y978768D01*
X494876Y979414D01*
X494784Y979446D01*
X495523Y977663D01*
X497253Y975408D01*
X499508Y973678D01*
X502134Y972590D01*
X503682Y972386D01*
Y986282D01*
D02*
G37*
G36*
X938276Y976376D02*
X923708D01*
X924052Y975812D01*
X924877Y974921D01*
X925830Y974284D01*
X926909Y973902D01*
X928116Y973775D01*
X916686D01*
Y962406D01*
X935705D01*
Y973805D01*
X935833Y972605D01*
X936214Y971531D01*
X936849Y970583D01*
X937738Y969761D01*
X938276Y969434D01*
Y976376D01*
D02*
G37*
G36*
X907124D02*
X892556D01*
Y962406D01*
X914146D01*
Y973775D01*
X902716D01*
X903923Y973902D01*
X905002Y974284D01*
X905955Y974921D01*
X906780Y975812D01*
X907124Y976376D01*
D02*
G37*
G36*
X935705Y959866D02*
X916686D01*
Y945896D01*
X938276D01*
Y952839D01*
X937738Y952511D01*
X936849Y951689D01*
X936214Y950742D01*
X935833Y949667D01*
X935705Y948466D01*
Y959866D01*
D02*
G37*
G36*
X914146D02*
X892556D01*
Y945896D01*
X914146D01*
Y959866D01*
D02*
G37*
G36*
X387223Y915215D02*
Y906526D01*
X395912D01*
X395735Y907877D01*
X394723Y910319D01*
X393114Y912417D01*
X391016Y914026D01*
X388574Y915038D01*
X387223Y915215D01*
D02*
G37*
G36*
X384683D02*
X383332Y915038D01*
X380890Y914026D01*
X378792Y912417D01*
X377183Y910319D01*
X376171Y907877D01*
X375994Y906526D01*
X384683D01*
Y915215D01*
D02*
G37*
G36*
X460720Y910483D02*
X458501Y908781D01*
X456567Y906261D01*
X455351Y903326D01*
X455104Y901446D01*
X465836D01*
Y906978D01*
X460438D01*
X460499Y907094D01*
X460553Y907318D01*
X460600Y907650D01*
X460677Y908637D01*
X460720Y910483D01*
D02*
G37*
G36*
X395912Y903986D02*
X390438D01*
X390565Y899900D01*
X391203D01*
X391050Y899706D01*
X390913Y899440D01*
X390792Y899102D01*
X390688Y898692D01*
X390615Y898295D01*
X390671Y896486D01*
X390676Y896345D01*
X391016Y896486D01*
X393114Y898095D01*
X394723Y900193D01*
X395735Y902635D01*
X395912Y903986D01*
D02*
G37*
G36*
X381501D02*
X375994D01*
X376171Y902635D01*
X377183Y900193D01*
X378792Y898095D01*
X380890Y896486D01*
X381378Y896284D01*
X381399Y896947D01*
X381307Y898209D01*
X381218Y898692D01*
X381114Y899102D01*
X380993Y899440D01*
X380856Y899706D01*
X380703Y899900D01*
X381478D01*
X381501Y903986D01*
D02*
G37*
G36*
X303530Y899610D02*
Y888238D01*
X309516D01*
Y894080D01*
X309718Y893935D01*
X310026Y893806D01*
X310439Y893691D01*
X310958Y893592D01*
X311582Y893509D01*
X313147Y893387D01*
X313346Y893382D01*
X311318Y896026D01*
X308665Y898061D01*
X305575Y899341D01*
X303530Y899610D01*
D02*
G37*
G36*
X465836Y898906D02*
X455104D01*
X455351Y897026D01*
X456567Y894091D01*
X458501Y891571D01*
X460620Y889946D01*
X460438Y893374D01*
X465836D01*
Y898906D01*
D02*
G37*
G36*
X300990Y899610D02*
X298945Y899341D01*
X295855Y898061D01*
X293202Y896026D01*
X291167Y893373D01*
X289887Y890283D01*
X289618Y888238D01*
X300990D01*
Y899610D01*
D02*
G37*
G36*
X309516Y885698D02*
X303530D01*
Y874326D01*
X305575Y874595D01*
X308665Y875875D01*
X311318Y877910D01*
X313300Y880493D01*
X310958Y880344D01*
X310439Y880245D01*
X310026Y880130D01*
X309718Y880001D01*
X309516Y879856D01*
Y885698D01*
D02*
G37*
G36*
X300990D02*
X289618D01*
X289887Y883653D01*
X291167Y880563D01*
X293202Y877910D01*
X295855Y875875D01*
X298945Y874595D01*
X300990Y874326D01*
Y885698D01*
D02*
G37*
G36*
X681228Y611886D02*
X673203D01*
X673235Y611777D01*
X673629Y610880D01*
X674095Y610182D01*
X674633Y609684D01*
X675243Y609385D01*
X675925Y609285D01*
X667258D01*
Y601726D01*
X681228D01*
Y611886D01*
D02*
G37*
G36*
X658773D02*
X650748D01*
Y601726D01*
X664718D01*
Y609285D01*
X656051D01*
X656733Y609385D01*
X657343Y609684D01*
X657881Y610182D01*
X658347Y610880D01*
X658741Y611777D01*
X658773Y611886D01*
D02*
G37*
G36*
X486554Y574548D02*
X480568D01*
Y563176D01*
X482613Y563445D01*
X485703Y564725D01*
X488356Y566760D01*
X490338Y569343D01*
X487996Y569194D01*
X487477Y569095D01*
X487064Y568980D01*
X486756Y568851D01*
X486554Y568706D01*
Y574548D01*
D02*
G37*
G36*
X478028D02*
X466656D01*
X466925Y572503D01*
X468205Y569413D01*
X470240Y566760D01*
X472893Y564725D01*
X475983Y563445D01*
X478028Y563176D01*
Y574548D01*
D02*
G37*
G36*
X669767Y545084D02*
X669544D01*
Y544931D01*
X669767Y545084D01*
D02*
G37*
G36*
X667004D02*
X653034D01*
Y534924D01*
X667004D01*
Y537397D01*
X659173Y542483D01*
X660329Y541939D01*
X661628Y541716D01*
X663068Y541814D01*
X664651Y542233D01*
X666376Y542974D01*
X667004Y543331D01*
Y545084D01*
D02*
G37*
G36*
X683514Y539188D02*
X683049Y538644D01*
X681553Y536520D01*
X680631Y534924D01*
X683514D01*
Y539188D01*
D02*
G37*
G36*
X669544Y535747D02*
Y534924D01*
X670811D01*
X669544Y535747D01*
D02*
G37*
G36*
X831850Y218504D02*
Y207772D01*
X837382D01*
Y213169D01*
X837498Y213109D01*
X837722Y213055D01*
X838054Y213008D01*
X839041Y212931D01*
X840887Y212888D01*
X839185Y215107D01*
X836665Y217041D01*
X833730Y218256D01*
X831850Y218504D01*
D02*
G37*
G36*
X837382Y205232D02*
X831850D01*
Y194500D01*
X833730Y194748D01*
X836665Y195963D01*
X839185Y197897D01*
X840810Y200016D01*
X837382Y199834D01*
Y205232D01*
D02*
G37*
%LPD*%
G36*
X538665Y998350D02*
X539021Y997417D01*
X539614Y996593D01*
X540446Y995879D01*
X541514Y995275D01*
X542820Y994781D01*
X544363Y994396D01*
X546144Y994122D01*
X548162Y993957D01*
X550418Y993902D01*
Y981202D01*
X548162Y981147D01*
X546144Y980982D01*
X544363Y980708D01*
X542820Y980323D01*
X541514Y979829D01*
X540446Y979225D01*
X539614Y978511D01*
X539021Y977688D01*
X538665Y976754D01*
X538546Y975711D01*
Y999393D01*
X538665Y998350D01*
D02*
G37*
G36*
X729637Y975458D02*
X729259Y974933D01*
X728926Y974349D01*
X728637Y973704D01*
X728393Y973000D01*
X728193Y972237D01*
X728037Y971414D01*
X727926Y970531D01*
X727859Y969589D01*
X727837Y968587D01*
X718947D01*
X718925Y969589D01*
X718747Y971414D01*
X718591Y972237D01*
X718391Y973000D01*
X718147Y973704D01*
X717858Y974349D01*
X717525Y974933D01*
X717147Y975458D01*
X716724Y975924D01*
X730060D01*
X729637Y975458D01*
D02*
G37*
G36*
X704237D02*
X703859Y974933D01*
X703526Y974349D01*
X703237Y973704D01*
X702993Y973000D01*
X702793Y972237D01*
X702637Y971414D01*
X702526Y970531D01*
X702459Y969589D01*
X702437Y968587D01*
X693547D01*
X693525Y969589D01*
X693347Y971414D01*
X693191Y972237D01*
X692991Y973000D01*
X692747Y973704D01*
X692458Y974349D01*
X692125Y974933D01*
X691747Y975458D01*
X691324Y975924D01*
X704660D01*
X704237Y975458D01*
D02*
G37*
G36*
X553292Y893883D02*
X552918Y894234D01*
X552479Y894548D01*
X551975Y894825D01*
X551407Y895066D01*
X550774Y895269D01*
X550077Y895435D01*
X549315Y895565D01*
X548489Y895657D01*
X546642Y895731D01*
X546935Y904621D01*
X547893Y904638D01*
X549616Y904774D01*
X550383Y904893D01*
X551086Y905047D01*
X551725Y905234D01*
X552301Y905455D01*
X552814Y905711D01*
X553262Y906000D01*
X553648Y906324D01*
X553292Y893883D01*
D02*
G37*
G36*
X525174Y906421D02*
X525699Y906043D01*
X526283Y905710D01*
X526928Y905421D01*
X527632Y905177D01*
X528395Y904977D01*
X529218Y904821D01*
X530101Y904710D01*
X531043Y904643D01*
X532045Y904621D01*
Y895731D01*
X531043Y895709D01*
X529218Y895531D01*
X528395Y895375D01*
X527632Y895175D01*
X526928Y894931D01*
X526283Y894642D01*
X525699Y894309D01*
X525174Y893931D01*
X524708Y893509D01*
Y906843D01*
X525174Y906421D01*
D02*
G37*
G36*
X106260Y902290D02*
X105202Y901051D01*
X104268Y899799D01*
X103459Y898534D01*
X102775Y897257D01*
X102215Y895967D01*
X101779Y894664D01*
X101468Y893348D01*
X101281Y892020D01*
X101219Y890679D01*
X92329D01*
X92267Y892020D01*
X92080Y893348D01*
X91769Y894664D01*
X91333Y895967D01*
X90773Y897257D01*
X90089Y898534D01*
X89280Y899799D01*
X88346Y901051D01*
X87288Y902290D01*
X86106Y903516D01*
X107442D01*
X106260Y902290D01*
D02*
G37*
G36*
X566545Y905807D02*
X566990Y905505D01*
X567498Y905238D01*
X568071Y905007D01*
X568707Y904811D01*
X569408Y904651D01*
X570172Y904527D01*
X571000Y904438D01*
X572849Y904367D01*
Y896462D01*
X590296Y904367D01*
X601027Y895477D01*
X599275Y895414D01*
X597575Y895226D01*
X595928Y894911D01*
X594332Y894471D01*
X592788Y893905D01*
X591297Y893214D01*
X589857Y892397D01*
X588470Y891454D01*
X587134Y890385D01*
X585851Y889191D01*
X573279D01*
X574384Y890385D01*
X575186Y891454D01*
X575685Y892397D01*
X575879Y893214D01*
X575771Y893905D01*
X575359Y894471D01*
X574643Y894911D01*
X573624Y895226D01*
X572301Y895414D01*
X571651Y895439D01*
X570172Y895317D01*
X569408Y895192D01*
X568707Y895033D01*
X568071Y894837D01*
X567498Y894606D01*
X566990Y894339D01*
X566545Y894037D01*
X566165Y893699D01*
Y906145D01*
X566545Y905807D01*
D02*
G37*
G36*
X935833Y909105D02*
X936214Y908030D01*
X936849Y907083D01*
X937738Y906261D01*
X938880Y905566D01*
X940277Y904997D01*
X941928Y904555D01*
X943833Y904239D01*
X945993Y904049D01*
X948406Y903986D01*
Y891286D01*
X945993Y891223D01*
X943833Y891033D01*
X941928Y890717D01*
X940277Y890275D01*
X938880Y889706D01*
X937738Y889011D01*
X936849Y888189D01*
X936214Y887242D01*
X935833Y886167D01*
X935705Y884967D01*
Y910305D01*
X935833Y909105D01*
D02*
G37*
G36*
X571925Y869241D02*
X572059Y867724D01*
X572281Y866386D01*
X572592Y865226D01*
X572992Y864245D01*
X573481Y863442D01*
X574059Y862818D01*
X574726Y862372D01*
X575481Y862104D01*
X576326Y862015D01*
X558546D01*
X559390Y862104D01*
X560146Y862372D01*
X560813Y862818D01*
X561391Y863442D01*
X561880Y864245D01*
X562280Y865226D01*
X562591Y866386D01*
X562813Y867724D01*
X562947Y869241D01*
X562991Y870936D01*
X571881D01*
X571925Y869241D01*
D02*
G37*
G36*
X724325Y868852D02*
X724679Y865387D01*
X724989Y863980D01*
X725387Y862789D01*
X725874Y861814D01*
X726450Y861056D01*
X726564Y860962D01*
Y861502D01*
X727562Y861008D01*
X728607Y860565D01*
X729701Y860175D01*
X730843Y859837D01*
X733271Y859317D01*
X734557Y859135D01*
X737275Y858927D01*
X738706Y858901D01*
Y850011D01*
X737275Y849985D01*
X734557Y849777D01*
X733271Y849595D01*
X730843Y849075D01*
X729701Y848737D01*
X728607Y848346D01*
X727562Y847904D01*
X726564Y847410D01*
Y860081D01*
X710965D01*
X711806Y860190D01*
X712559Y860515D01*
X713222Y861056D01*
X713798Y861814D01*
X714285Y862789D01*
X714683Y863980D01*
X714993Y865387D01*
X715214Y867012D01*
X715347Y868852D01*
X715391Y870910D01*
X724281D01*
X724325Y868852D01*
D02*
G37*
G36*
X808928Y861097D02*
X809195Y860583D01*
X809640Y860129D01*
X810262Y859736D01*
X811062Y859403D01*
X812040Y859131D01*
X813196Y858919D01*
X814529Y858768D01*
X816040Y858677D01*
X817729Y858647D01*
Y849757D01*
X816040Y849727D01*
X813196Y849485D01*
X812040Y849273D01*
X811062Y849001D01*
X810262Y848668D01*
X809640Y848275D01*
X809195Y847821D01*
X808928Y847307D01*
X808839Y846732D01*
Y861672D01*
X808928Y861097D01*
D02*
G37*
G36*
X793901Y846732D02*
X793812Y847355D01*
X793545Y847913D01*
X793100Y848404D01*
X792478Y848831D01*
X791678Y849191D01*
X790700Y849486D01*
X789544Y849716D01*
X788211Y849880D01*
X786700Y849978D01*
X785011Y850011D01*
Y858901D01*
X786700Y858929D01*
X789544Y859150D01*
X790700Y859344D01*
X791678Y859594D01*
X792478Y859898D01*
X793100Y860259D01*
X793545Y860674D01*
X793812Y861145D01*
X793901Y861672D01*
Y846732D01*
D02*
G37*
G36*
X368420Y811396D02*
X393115D01*
X393549Y811339D01*
X393984Y811396D01*
X403740D01*
Y814325D01*
X441430D01*
X441956Y813055D01*
X425956Y797054D01*
X423615Y794004D01*
X422143Y790451D01*
X421641Y786638D01*
Y712765D01*
X421635Y712603D01*
X420456Y711167D01*
X418687Y707857D01*
X417598Y704267D01*
X417230Y700532D01*
X417598Y696797D01*
X418687Y693207D01*
X420203Y690371D01*
X419576Y689101D01*
X364268D01*
X363641Y690371D01*
X365157Y693207D01*
X366246Y696797D01*
X366614Y700532D01*
X366246Y704267D01*
X365157Y707857D01*
X363388Y711167D01*
X362482Y712271D01*
X362457Y712590D01*
Y713734D01*
X367032Y718310D01*
X369374Y721360D01*
X370636Y724408D01*
X375031D01*
Y770128D01*
X338201D01*
Y769904D01*
X337181Y769147D01*
X334826Y769862D01*
X331216Y770217D01*
X327606Y769862D01*
X324135Y768809D01*
X320936Y767099D01*
X318132Y764797D01*
X315830Y761993D01*
X314120Y758794D01*
X313067Y755323D01*
X312712Y751713D01*
Y742823D01*
X313067Y739213D01*
X313339Y738317D01*
X312295Y737595D01*
X311956Y737855D01*
X309484Y738878D01*
X308051Y739067D01*
X308175Y738504D01*
X308573Y737313D01*
X309060Y736338D01*
X309636Y735580D01*
X310299Y735039D01*
X311052Y734714D01*
X311893Y734605D01*
X304292D01*
Y728980D01*
X303022D01*
Y727710D01*
X289132D01*
X289314Y726328D01*
X290337Y723856D01*
X291278Y722630D01*
X290652Y721360D01*
X281432D01*
Y689101D01*
X242901D01*
X242473Y690297D01*
X243265Y690947D01*
X245487Y693654D01*
X247138Y696743D01*
X248155Y700095D01*
X248498Y703580D01*
X248155Y707066D01*
X247138Y710417D01*
X245487Y713506D01*
X244005Y715311D01*
X243313Y716280D01*
X244005Y717249D01*
X245487Y719054D01*
X247138Y722143D01*
X248155Y725495D01*
X248498Y728980D01*
X248155Y732466D01*
X247138Y735817D01*
X245487Y738906D01*
X243265Y741613D01*
X242059Y742603D01*
X241908Y742753D01*
X241802Y742814D01*
X241658Y742933D01*
X241553Y743956D01*
Y767082D01*
X243246Y769145D01*
X245015Y772455D01*
X246104Y776046D01*
X246472Y779780D01*
X246104Y783514D01*
X245015Y787105D01*
X243246Y790415D01*
X240866Y793316D01*
X237965Y795696D01*
X234655Y797465D01*
X231064Y798554D01*
X227330Y798922D01*
X223596Y798554D01*
X220005Y797465D01*
X216695Y795696D01*
X213794Y793316D01*
X211414Y790415D01*
X209645Y787105D01*
X208556Y783514D01*
X208188Y779780D01*
X208556Y776046D01*
X209645Y772455D01*
X211414Y769145D01*
X212059Y768359D01*
X212091Y767932D01*
Y744044D01*
X211593Y743937D01*
X210991Y743852D01*
X209152Y743711D01*
X162820D01*
X157733Y748798D01*
Y776883D01*
X159003Y777484D01*
X160845Y775972D01*
X162862Y774894D01*
X163031Y773364D01*
X161656Y771572D01*
X160555Y768915D01*
X160347Y767334D01*
X175514D01*
X184494D01*
Y773042D01*
X185163Y772560D01*
X185935Y772130D01*
X186809Y771750D01*
X187787Y771421D01*
X188868Y771142D01*
X189610Y770999D01*
X189372Y771572D01*
X187997Y773364D01*
X188166Y774894D01*
X189482Y775597D01*
X191261Y776137D01*
X194129Y777670D01*
X196643Y779733D01*
X197151Y780241D01*
X199214Y782755D01*
X200747Y785623D01*
X201457Y787962D01*
X216410Y802916D01*
X217166Y803901D01*
X218009Y804810D01*
X221714Y810033D01*
X221850Y810046D01*
X225681Y811208D01*
X229211Y813095D01*
X232305Y815634D01*
X234844Y818728D01*
X236731Y822258D01*
X237893Y826089D01*
X238285Y830072D01*
X237893Y834055D01*
X236731Y837886D01*
X236645Y838047D01*
X237298Y839136D01*
X291606D01*
X292233Y837866D01*
X291167Y836477D01*
X289887Y833387D01*
X289618Y831342D01*
X314902D01*
X314633Y833387D01*
X313353Y836477D01*
X312287Y837866D01*
X312914Y839136D01*
X368420D01*
Y811396D01*
D02*
G37*
G36*
X795839Y823736D02*
X795643Y823903D01*
X795375Y824051D01*
X795036Y824183D01*
X794624Y824296D01*
X794141Y824392D01*
X793587Y824471D01*
X792262Y824576D01*
X790650Y824611D01*
X791025Y833501D01*
X791869Y833508D01*
X794520Y833683D01*
X795000Y833764D01*
X795408Y833858D01*
X795743Y833968D01*
X796005Y834092D01*
X796195Y834230D01*
X795839Y823736D01*
D02*
G37*
G36*
X806920Y833899D02*
X807186Y833762D01*
X807524Y833641D01*
X807934Y833537D01*
X808417Y833448D01*
X809598Y833319D01*
X811068Y833255D01*
X811911Y833247D01*
Y824357D01*
X811068Y824349D01*
X808417Y824156D01*
X807934Y824067D01*
X807524Y823963D01*
X807186Y823842D01*
X806920Y823705D01*
X806726Y823552D01*
Y834052D01*
X806920Y833899D01*
D02*
G37*
G36*
X491138Y835301D02*
X491663Y834923D01*
X492248Y834590D01*
X492892Y834301D01*
X493596Y834057D01*
X494359Y833857D01*
X495182Y833701D01*
X496065Y833590D01*
X497007Y833523D01*
X498009Y833501D01*
Y824611D01*
X497007Y824589D01*
X495182Y824411D01*
X494359Y824255D01*
X493596Y824055D01*
X492892Y823811D01*
X492248Y823522D01*
X491663Y823189D01*
X491138Y822811D01*
X490672Y822389D01*
Y835723D01*
X491138Y835301D01*
D02*
G37*
G36*
X477068Y822389D02*
X476602Y822811D01*
X476077Y823189D01*
X475493Y823522D01*
X474848Y823811D01*
X474144Y824055D01*
X473381Y824255D01*
X472558Y824411D01*
X471675Y824522D01*
X470733Y824589D01*
X469731Y824611D01*
Y833501D01*
X470733Y833523D01*
X472558Y833701D01*
X473381Y833857D01*
X474144Y834057D01*
X474848Y834301D01*
X475493Y834590D01*
X476077Y834923D01*
X476602Y835301D01*
X477068Y835723D01*
Y822389D01*
D02*
G37*
G36*
X727562Y835608D02*
X728607Y835165D01*
X729701Y834775D01*
X730843Y834437D01*
X733271Y833917D01*
X734557Y833735D01*
X737275Y833527D01*
X738706Y833501D01*
Y824611D01*
X737275Y824585D01*
X734557Y824377D01*
X733271Y824195D01*
X730843Y823675D01*
X729701Y823337D01*
X728607Y822946D01*
X727562Y822504D01*
X726564Y822010D01*
Y836102D01*
X727562Y835608D01*
D02*
G37*
G36*
X560708Y822010D02*
X559710Y822504D01*
X558665Y822946D01*
X557571Y823337D01*
X556429Y823675D01*
X554001Y824195D01*
X552715Y824377D01*
X549997Y824585D01*
X548566Y824611D01*
Y833501D01*
X549997Y833527D01*
X552715Y833735D01*
X554001Y833917D01*
X556429Y834437D01*
X557571Y834775D01*
X558665Y835165D01*
X559710Y835608D01*
X560708Y836102D01*
Y822010D01*
D02*
G37*
G36*
X393638Y835951D02*
X393905Y835437D01*
X394350Y834983D01*
X394972Y834590D01*
X395772Y834257D01*
X396750Y833985D01*
X397906Y833773D01*
X399239Y833622D01*
X400750Y833531D01*
X402439Y833501D01*
Y824611D01*
X400750Y824581D01*
X397906Y824339D01*
X396750Y824127D01*
X395772Y823855D01*
X394972Y823522D01*
X394350Y823129D01*
X393905Y822675D01*
X393638Y822161D01*
X393549Y821587D01*
Y836525D01*
X393638Y835951D01*
D02*
G37*
G36*
X125162Y816360D02*
X124137Y815209D01*
X123223Y813918D01*
X122419Y812486D01*
X121726Y810912D01*
X121144Y809198D01*
X120671Y807343D01*
X120309Y805347D01*
X120058Y803210D01*
X119917Y800932D01*
X119887Y798512D01*
X101028Y817371D01*
X103448Y817401D01*
X107863Y817794D01*
X109859Y818155D01*
X111714Y818627D01*
X113428Y819210D01*
X115002Y819903D01*
X116434Y820707D01*
X117725Y821621D01*
X118876Y822646D01*
X125162Y816360D01*
D02*
G37*
G36*
X795839Y798336D02*
X795643Y798503D01*
X795375Y798651D01*
X795036Y798783D01*
X794624Y798896D01*
X794141Y798992D01*
X793587Y799071D01*
X792262Y799176D01*
X790650Y799211D01*
X791025Y808101D01*
X791869Y808108D01*
X794520Y808283D01*
X795000Y808364D01*
X795408Y808458D01*
X795743Y808568D01*
X796005Y808692D01*
X796195Y808830D01*
X795839Y798336D01*
D02*
G37*
G36*
X806920Y808499D02*
X807186Y808362D01*
X807524Y808241D01*
X807934Y808137D01*
X808417Y808048D01*
X809598Y807919D01*
X811068Y807855D01*
X811911Y807847D01*
Y798957D01*
X811068Y798949D01*
X808417Y798756D01*
X807934Y798667D01*
X807524Y798563D01*
X807186Y798442D01*
X806920Y798305D01*
X806726Y798152D01*
Y808652D01*
X806920Y808499D01*
D02*
G37*
G36*
X491138Y809901D02*
X491663Y809523D01*
X492248Y809190D01*
X492892Y808901D01*
X493596Y808657D01*
X494359Y808457D01*
X495182Y808301D01*
X496065Y808190D01*
X497007Y808123D01*
X498009Y808101D01*
Y799211D01*
X497007Y799189D01*
X495182Y799011D01*
X494359Y798855D01*
X493596Y798655D01*
X492892Y798411D01*
X492248Y798122D01*
X491663Y797789D01*
X491138Y797411D01*
X490672Y796989D01*
Y810323D01*
X491138Y809901D01*
D02*
G37*
G36*
X477068Y796989D02*
X476602Y797411D01*
X476077Y797789D01*
X475493Y798122D01*
X474848Y798411D01*
X474144Y798655D01*
X473381Y798855D01*
X472558Y799011D01*
X471675Y799122D01*
X470733Y799189D01*
X469731Y799211D01*
Y808101D01*
X470733Y808123D01*
X472558Y808301D01*
X473381Y808457D01*
X474144Y808657D01*
X474848Y808901D01*
X475493Y809190D01*
X476077Y809523D01*
X476602Y809901D01*
X477068Y810323D01*
Y796989D01*
D02*
G37*
G36*
X727562Y810208D02*
X728607Y809765D01*
X729701Y809375D01*
X730843Y809037D01*
X733271Y808517D01*
X734557Y808335D01*
X737275Y808127D01*
X738706Y808101D01*
Y799211D01*
X737275Y799185D01*
X734557Y798977D01*
X733271Y798795D01*
X730843Y798275D01*
X729701Y797937D01*
X728607Y797546D01*
X727562Y797104D01*
X726564Y796610D01*
Y810702D01*
X727562Y810208D01*
D02*
G37*
G36*
X560708Y796610D02*
X559710Y797104D01*
X558665Y797546D01*
X557571Y797937D01*
X556429Y798275D01*
X554001Y798795D01*
X552715Y798977D01*
X549997Y799185D01*
X548566Y799211D01*
Y808101D01*
X549997Y808127D01*
X552715Y808335D01*
X554001Y808517D01*
X556429Y809037D01*
X557571Y809375D01*
X558665Y809765D01*
X559710Y810208D01*
X560708Y810702D01*
Y796610D01*
D02*
G37*
G36*
X795839Y772936D02*
X795643Y773103D01*
X795375Y773251D01*
X795036Y773382D01*
X794624Y773496D01*
X794141Y773592D01*
X793587Y773671D01*
X792262Y773776D01*
X790650Y773811D01*
X791025Y782701D01*
X791869Y782708D01*
X794520Y782883D01*
X795000Y782964D01*
X795408Y783058D01*
X795743Y783168D01*
X796005Y783292D01*
X796195Y783430D01*
X795839Y772936D01*
D02*
G37*
G36*
X806920Y783099D02*
X807186Y782962D01*
X807524Y782841D01*
X807934Y782737D01*
X808417Y782648D01*
X809598Y782519D01*
X811068Y782455D01*
X811911Y782447D01*
Y773557D01*
X811068Y773549D01*
X808417Y773356D01*
X807934Y773267D01*
X807524Y773163D01*
X807186Y773042D01*
X806920Y772905D01*
X806726Y772752D01*
Y783252D01*
X806920Y783099D01*
D02*
G37*
G36*
X491138Y784501D02*
X491663Y784123D01*
X492248Y783790D01*
X492892Y783501D01*
X493596Y783257D01*
X494359Y783057D01*
X495182Y782901D01*
X496065Y782790D01*
X497007Y782723D01*
X498009Y782701D01*
Y773811D01*
X497007Y773789D01*
X495182Y773611D01*
X494359Y773455D01*
X493596Y773255D01*
X492892Y773011D01*
X492248Y772722D01*
X491663Y772389D01*
X491138Y772011D01*
X490672Y771589D01*
Y784923D01*
X491138Y784501D01*
D02*
G37*
G36*
X727562Y784808D02*
X728607Y784365D01*
X729701Y783975D01*
X730843Y783637D01*
X733271Y783117D01*
X734557Y782935D01*
X737275Y782727D01*
X738706Y782701D01*
Y773811D01*
X737275Y773785D01*
X734557Y773577D01*
X733271Y773395D01*
X730843Y772875D01*
X729701Y772537D01*
X728607Y772147D01*
X727562Y771704D01*
X726564Y771210D01*
Y785302D01*
X727562Y784808D01*
D02*
G37*
G36*
X560708Y771210D02*
X559710Y771704D01*
X558665Y772147D01*
X557571Y772537D01*
X556429Y772875D01*
X554001Y773395D01*
X552715Y773577D01*
X549997Y773785D01*
X548566Y773811D01*
Y782701D01*
X549997Y782727D01*
X552715Y782935D01*
X554001Y783117D01*
X556429Y783637D01*
X557571Y783975D01*
X558665Y784365D01*
X559710Y784808D01*
X560708Y785302D01*
Y771210D01*
D02*
G37*
G36*
X233180Y773086D02*
X232817Y772719D01*
X232491Y772287D01*
X232204Y771789D01*
X231956Y771226D01*
X231745Y770597D01*
X231573Y769904D01*
X231439Y769145D01*
X231343Y768320D01*
X231267Y766475D01*
X222377Y767064D01*
X222361Y768022D01*
X222231Y769749D01*
X222117Y770517D01*
X221971Y771222D01*
X221793Y771864D01*
X221582Y772442D01*
X221339Y772957D01*
X221063Y773409D01*
X220754Y773797D01*
X233180Y773086D01*
D02*
G37*
G36*
X795839Y747536D02*
X795643Y747703D01*
X795375Y747851D01*
X795036Y747982D01*
X794624Y748096D01*
X794141Y748192D01*
X793587Y748271D01*
X792262Y748376D01*
X790650Y748411D01*
X791025Y757301D01*
X791869Y757308D01*
X794520Y757483D01*
X795000Y757564D01*
X795408Y757658D01*
X795743Y757768D01*
X796005Y757892D01*
X796195Y758030D01*
X795839Y747536D01*
D02*
G37*
G36*
X806920Y757699D02*
X807186Y757562D01*
X807524Y757441D01*
X807934Y757337D01*
X808417Y757248D01*
X809598Y757119D01*
X811068Y757055D01*
X811911Y757047D01*
Y748157D01*
X811068Y748149D01*
X808417Y747956D01*
X807934Y747867D01*
X807524Y747763D01*
X807186Y747642D01*
X806920Y747505D01*
X806726Y747352D01*
Y757852D01*
X806920Y757699D01*
D02*
G37*
G36*
X491138Y759101D02*
X491663Y758723D01*
X492248Y758390D01*
X492892Y758101D01*
X493596Y757857D01*
X494359Y757657D01*
X495182Y757501D01*
X496065Y757390D01*
X497007Y757323D01*
X498009Y757301D01*
Y748411D01*
X497007Y748389D01*
X495182Y748211D01*
X494359Y748055D01*
X493596Y747855D01*
X492892Y747611D01*
X492248Y747322D01*
X491663Y746989D01*
X491138Y746611D01*
X490672Y746189D01*
Y759523D01*
X491138Y759101D01*
D02*
G37*
G36*
X727562Y759408D02*
X728607Y758966D01*
X729701Y758575D01*
X730843Y758237D01*
X733271Y757717D01*
X734557Y757535D01*
X737275Y757327D01*
X738706Y757301D01*
Y748411D01*
X737275Y748385D01*
X734557Y748177D01*
X733271Y747995D01*
X730843Y747475D01*
X729701Y747137D01*
X728607Y746747D01*
X727562Y746304D01*
X726564Y745810D01*
Y759902D01*
X727562Y759408D01*
D02*
G37*
G36*
X560708Y745810D02*
X559710Y746304D01*
X558665Y746747D01*
X557571Y747137D01*
X556429Y747475D01*
X554001Y747995D01*
X552715Y748177D01*
X549997Y748385D01*
X548566Y748411D01*
Y757301D01*
X549997Y757327D01*
X552715Y757535D01*
X554001Y757717D01*
X556429Y758237D01*
X557571Y758575D01*
X558665Y758966D01*
X559710Y759408D01*
X560708Y759902D01*
Y745810D01*
D02*
G37*
G36*
X231311Y743376D02*
X231665Y739911D01*
X231975Y738504D01*
X232373Y737313D01*
X232860Y736338D01*
X233436Y735580D01*
X234099Y735039D01*
X234852Y734714D01*
X235693Y734605D01*
X220094D01*
Y721934D01*
X219096Y722428D01*
X218051Y722870D01*
X216957Y723261D01*
X215815Y723599D01*
X213387Y724119D01*
X212101Y724301D01*
X209383Y724509D01*
X207952Y724535D01*
Y733425D01*
X209383Y733451D01*
X212101Y733659D01*
X213387Y733841D01*
X215815Y734361D01*
X216957Y734699D01*
X218051Y735089D01*
X219096Y735532D01*
X220094Y736026D01*
Y735486D01*
X220208Y735580D01*
X220784Y736338D01*
X221271Y737313D01*
X221669Y738504D01*
X221979Y739911D01*
X222200Y741536D01*
X222333Y743376D01*
X222377Y745434D01*
X231267D01*
X231311Y743376D01*
D02*
G37*
G36*
X362217Y734540D02*
X361975Y734364D01*
X361760Y734070D01*
X361575Y733659D01*
X361418Y733130D01*
X361289Y732484D01*
X361189Y731721D01*
X361075Y729842D01*
X361061Y728726D01*
X352171D01*
X352157Y729842D01*
X351943Y732484D01*
X351814Y733130D01*
X351657Y733659D01*
X351471Y734070D01*
X351257Y734364D01*
X351015Y734540D01*
X350743Y734598D01*
X362489D01*
X362217Y734540D01*
D02*
G37*
G36*
X337626Y737587D02*
X337214Y736835D01*
X336850Y735977D01*
X336535Y735013D01*
X336268Y733941D01*
X336049Y732763D01*
X335758Y730087D01*
X335685Y728588D01*
X335661Y726983D01*
X326771D01*
X326747Y728588D01*
X326383Y732763D01*
X326164Y733941D01*
X325897Y735013D01*
X325582Y735977D01*
X325218Y736835D01*
X324805Y737587D01*
X324344Y738232D01*
X338088D01*
X337626Y737587D01*
D02*
G37*
G36*
X795839Y722136D02*
X795643Y722303D01*
X795375Y722451D01*
X795036Y722582D01*
X794624Y722696D01*
X794141Y722792D01*
X793587Y722871D01*
X792262Y722976D01*
X790650Y723011D01*
X791025Y731901D01*
X791869Y731908D01*
X794520Y732083D01*
X795000Y732164D01*
X795408Y732258D01*
X795743Y732368D01*
X796005Y732492D01*
X796195Y732630D01*
X795839Y722136D01*
D02*
G37*
G36*
X806920Y732299D02*
X807186Y732162D01*
X807524Y732041D01*
X807934Y731937D01*
X808417Y731848D01*
X809598Y731719D01*
X811068Y731655D01*
X811911Y731647D01*
Y722757D01*
X811068Y722749D01*
X808417Y722556D01*
X807934Y722467D01*
X807524Y722363D01*
X807186Y722242D01*
X806920Y722105D01*
X806726Y721952D01*
Y732452D01*
X806920Y732299D01*
D02*
G37*
G36*
X491138Y733701D02*
X491663Y733323D01*
X492248Y732990D01*
X492892Y732701D01*
X493596Y732457D01*
X494359Y732257D01*
X495182Y732101D01*
X496065Y731990D01*
X497007Y731923D01*
X498009Y731901D01*
Y723011D01*
X497007Y722989D01*
X495182Y722811D01*
X494359Y722655D01*
X493596Y722455D01*
X492892Y722211D01*
X492248Y721922D01*
X491663Y721589D01*
X491138Y721211D01*
X490672Y720788D01*
Y734124D01*
X491138Y733701D01*
D02*
G37*
G36*
X727562Y734008D02*
X728607Y733566D01*
X729701Y733175D01*
X730843Y732837D01*
X733271Y732317D01*
X734557Y732135D01*
X737275Y731927D01*
X738706Y731901D01*
Y723011D01*
X737275Y722985D01*
X734557Y722777D01*
X733271Y722595D01*
X730843Y722075D01*
X729701Y721737D01*
X728607Y721347D01*
X727562Y720904D01*
X726564Y720410D01*
Y734502D01*
X727562Y734008D01*
D02*
G37*
G36*
X560708Y720410D02*
X559710Y720904D01*
X558665Y721347D01*
X557571Y721737D01*
X556429Y722075D01*
X554001Y722595D01*
X552715Y722777D01*
X549997Y722985D01*
X548566Y723011D01*
Y731901D01*
X549997Y731927D01*
X552715Y732135D01*
X554001Y732317D01*
X556429Y732837D01*
X557571Y733175D01*
X558665Y733566D01*
X559710Y734008D01*
X560708Y734502D01*
Y720410D01*
D02*
G37*
G36*
X109391Y728414D02*
X108636Y728147D01*
X107969Y727702D01*
X107391Y727080D01*
X106902Y726280D01*
X106502Y725302D01*
X106191Y724146D01*
X105969Y722813D01*
X105835Y721302D01*
X105791Y719613D01*
X96901D01*
X96856Y721302D01*
X96723Y722813D01*
X96501Y724146D01*
X96190Y725302D01*
X95790Y726280D01*
X95301Y727080D01*
X94723Y727702D01*
X94056Y728147D01*
X93301Y728414D01*
X92456Y728503D01*
X110236D01*
X109391Y728414D01*
D02*
G37*
G36*
X105809Y715657D02*
X105951Y713936D01*
X106075Y713172D01*
X106236Y712471D01*
X106431Y711835D01*
X106662Y711262D01*
X106929Y710754D01*
X107231Y710309D01*
X107569Y709929D01*
X95123D01*
X95461Y710309D01*
X95763Y710754D01*
X96030Y711262D01*
X96261Y711835D01*
X96456Y712471D01*
X96616Y713172D01*
X96741Y713936D01*
X96830Y714764D01*
X96901Y716613D01*
X105791D01*
X105809Y715657D01*
D02*
G37*
G36*
X440835Y712609D02*
X440977Y710888D01*
X441101Y710124D01*
X441261Y709423D01*
X441457Y708787D01*
X441688Y708214D01*
X441955Y707706D01*
X442257Y707261D01*
X442595Y706881D01*
X430149D01*
X430487Y707261D01*
X430789Y707706D01*
X431056Y708214D01*
X431287Y708787D01*
X431483Y709423D01*
X431642Y710124D01*
X431767Y710888D01*
X431856Y711716D01*
X431927Y713565D01*
X440817D01*
X440835Y712609D01*
D02*
G37*
G36*
X352171Y713413D02*
X352188Y712455D01*
X352324Y710732D01*
X352444Y709965D01*
X352597Y709262D01*
X352784Y708623D01*
X353005Y708047D01*
X353261Y707534D01*
X353550Y707086D01*
X353874Y706700D01*
X341433Y707056D01*
X341784Y707430D01*
X342098Y707869D01*
X342375Y708373D01*
X342616Y708941D01*
X342819Y709574D01*
X342985Y710271D01*
X343115Y711033D01*
X343207Y711860D01*
X343281Y713706D01*
X352171Y713413D01*
D02*
G37*
G36*
X196975Y709465D02*
X197420Y709163D01*
X197928Y708896D01*
X198501Y708665D01*
X199137Y708469D01*
X199838Y708309D01*
X200602Y708185D01*
X201430Y708096D01*
X203279Y708025D01*
Y699135D01*
X202323Y699117D01*
X200602Y698975D01*
X199838Y698850D01*
X199137Y698690D01*
X198501Y698495D01*
X197928Y698264D01*
X197420Y697997D01*
X196975Y697695D01*
X196595Y697357D01*
Y709803D01*
X196975Y709465D01*
D02*
G37*
G36*
X94997Y697357D02*
X94617Y697695D01*
X94172Y697997D01*
X93664Y698264D01*
X93091Y698495D01*
X92455Y698690D01*
X91754Y698850D01*
X90990Y698975D01*
X90162Y699064D01*
X88313Y699135D01*
Y708025D01*
X89269Y708043D01*
X90990Y708185D01*
X91754Y708309D01*
X92455Y708469D01*
X93091Y708665D01*
X93664Y708896D01*
X94172Y709163D01*
X94617Y709465D01*
X94997Y709803D01*
Y697357D01*
D02*
G37*
G36*
X795839Y696736D02*
X795643Y696903D01*
X795375Y697051D01*
X795036Y697182D01*
X794624Y697296D01*
X794141Y697392D01*
X793587Y697471D01*
X792262Y697576D01*
X790650Y697611D01*
X791025Y706501D01*
X791869Y706508D01*
X794520Y706683D01*
X795000Y706764D01*
X795408Y706858D01*
X795743Y706968D01*
X796005Y707092D01*
X796195Y707230D01*
X795839Y696736D01*
D02*
G37*
G36*
X806920Y706899D02*
X807186Y706762D01*
X807524Y706641D01*
X807934Y706537D01*
X808417Y706448D01*
X809598Y706319D01*
X811068Y706255D01*
X811911Y706247D01*
Y697357D01*
X811068Y697349D01*
X808417Y697156D01*
X807934Y697067D01*
X807524Y696963D01*
X807186Y696842D01*
X806920Y696705D01*
X806726Y696552D01*
Y707052D01*
X806920Y706899D01*
D02*
G37*
G36*
X220094Y696534D02*
X219096Y697028D01*
X218051Y697470D01*
X216957Y697861D01*
X215815Y698199D01*
X213387Y698719D01*
X212101Y698901D01*
X209383Y699109D01*
X207952Y699135D01*
Y708025D01*
X209383Y708051D01*
X212101Y708259D01*
X213387Y708441D01*
X215815Y708961D01*
X216957Y709299D01*
X218051Y709689D01*
X219096Y710132D01*
X220094Y710626D01*
Y696534D01*
D02*
G37*
G36*
X491138Y708301D02*
X491663Y707923D01*
X492248Y707590D01*
X492892Y707301D01*
X493596Y707057D01*
X494359Y706857D01*
X495182Y706701D01*
X496065Y706590D01*
X497007Y706523D01*
X498009Y706501D01*
Y697611D01*
X497007Y697589D01*
X495182Y697411D01*
X494359Y697255D01*
X493596Y697055D01*
X492892Y696811D01*
X492248Y696522D01*
X491663Y696189D01*
X491138Y695811D01*
X490672Y695388D01*
Y708724D01*
X491138Y708301D01*
D02*
G37*
G36*
X727562Y708608D02*
X728607Y708166D01*
X729701Y707775D01*
X730843Y707437D01*
X733271Y706917D01*
X734557Y706735D01*
X737275Y706527D01*
X738706Y706501D01*
Y697611D01*
X737275Y697585D01*
X734557Y697377D01*
X733271Y697195D01*
X730843Y696675D01*
X729701Y696337D01*
X728607Y695947D01*
X727562Y695504D01*
X726564Y695010D01*
Y709102D01*
X727562Y708608D01*
D02*
G37*
G36*
X560708Y695010D02*
X559710Y695504D01*
X558665Y695947D01*
X557571Y696337D01*
X556429Y696675D01*
X554001Y697195D01*
X552715Y697377D01*
X549997Y697585D01*
X548566Y697611D01*
Y706501D01*
X549997Y706527D01*
X552715Y706735D01*
X554001Y706917D01*
X556429Y707437D01*
X557571Y707775D01*
X558665Y708166D01*
X559710Y708608D01*
X560708Y709102D01*
Y695010D01*
D02*
G37*
G36*
X1026055Y690301D02*
X1026233Y688476D01*
X1026389Y687653D01*
X1026589Y686890D01*
X1026833Y686186D01*
X1027122Y685542D01*
X1027455Y684957D01*
X1027833Y684432D01*
X1028255Y683966D01*
X1014921D01*
X1015343Y684432D01*
X1015721Y684957D01*
X1016054Y685542D01*
X1016343Y686186D01*
X1016587Y686890D01*
X1016787Y687653D01*
X1016943Y688476D01*
X1017054Y689359D01*
X1017121Y690301D01*
X1017143Y691303D01*
X1026033D01*
X1026055Y690301D01*
D02*
G37*
G36*
X1000655D02*
X1000833Y688476D01*
X1000989Y687653D01*
X1001189Y686890D01*
X1001433Y686186D01*
X1001722Y685542D01*
X1002055Y684957D01*
X1002433Y684432D01*
X1002856Y683966D01*
X989520D01*
X989943Y684432D01*
X990321Y684957D01*
X990654Y685542D01*
X990943Y686186D01*
X991187Y686890D01*
X991387Y687653D01*
X991543Y688476D01*
X991654Y689359D01*
X991721Y690301D01*
X991743Y691303D01*
X1000633D01*
X1000655Y690301D01*
D02*
G37*
G36*
X975255D02*
X975433Y688476D01*
X975589Y687653D01*
X975789Y686890D01*
X976033Y686186D01*
X976322Y685542D01*
X976655Y684957D01*
X977033Y684432D01*
X977456Y683966D01*
X964120D01*
X964543Y684432D01*
X964921Y684957D01*
X965254Y685542D01*
X965543Y686186D01*
X965787Y686890D01*
X965987Y687653D01*
X966143Y688476D01*
X966254Y689359D01*
X966321Y690301D01*
X966343Y691303D01*
X975233D01*
X975255Y690301D01*
D02*
G37*
G36*
X949855D02*
X950033Y688476D01*
X950189Y687653D01*
X950389Y686890D01*
X950633Y686186D01*
X950922Y685542D01*
X951255Y684957D01*
X951633Y684432D01*
X952056Y683966D01*
X938720D01*
X939143Y684432D01*
X939521Y684957D01*
X939854Y685542D01*
X940143Y686186D01*
X940387Y686890D01*
X940587Y687653D01*
X940743Y688476D01*
X940854Y689359D01*
X940921Y690301D01*
X940943Y691303D01*
X949833D01*
X949855Y690301D01*
D02*
G37*
G36*
X924455D02*
X924633Y688476D01*
X924789Y687653D01*
X924989Y686890D01*
X925233Y686186D01*
X925522Y685542D01*
X925855Y684957D01*
X926233Y684432D01*
X926656Y683966D01*
X913320D01*
X913743Y684432D01*
X914121Y684957D01*
X914454Y685542D01*
X914743Y686186D01*
X914987Y686890D01*
X915187Y687653D01*
X915343Y688476D01*
X915454Y689359D01*
X915521Y690301D01*
X915543Y691303D01*
X924433D01*
X924455Y690301D01*
D02*
G37*
G36*
X899055D02*
X899233Y688476D01*
X899389Y687653D01*
X899589Y686890D01*
X899833Y686186D01*
X900122Y685542D01*
X900455Y684957D01*
X900833Y684432D01*
X901255Y683966D01*
X887921D01*
X888343Y684432D01*
X888721Y684957D01*
X889054Y685542D01*
X889343Y686186D01*
X889587Y686890D01*
X889787Y687653D01*
X889943Y688476D01*
X890054Y689359D01*
X890121Y690301D01*
X890143Y691303D01*
X899033D01*
X899055Y690301D01*
D02*
G37*
G36*
X795839Y671336D02*
X795643Y671503D01*
X795375Y671651D01*
X795036Y671783D01*
X794624Y671896D01*
X794141Y671992D01*
X793587Y672071D01*
X792262Y672176D01*
X790650Y672211D01*
X791025Y681101D01*
X791869Y681108D01*
X794520Y681283D01*
X795000Y681364D01*
X795408Y681458D01*
X795743Y681568D01*
X796005Y681692D01*
X796195Y681830D01*
X795839Y671336D01*
D02*
G37*
G36*
X806920Y681499D02*
X807186Y681362D01*
X807524Y681241D01*
X807934Y681137D01*
X808417Y681048D01*
X809598Y680919D01*
X811068Y680855D01*
X811911Y680847D01*
Y671957D01*
X811068Y671949D01*
X808417Y671756D01*
X807934Y671667D01*
X807524Y671563D01*
X807186Y671442D01*
X806920Y671305D01*
X806726Y671152D01*
Y681652D01*
X806920Y681499D01*
D02*
G37*
G36*
X491138Y682901D02*
X491663Y682523D01*
X492248Y682190D01*
X492892Y681901D01*
X493596Y681657D01*
X494359Y681457D01*
X495182Y681301D01*
X496065Y681190D01*
X497007Y681123D01*
X498009Y681101D01*
Y672211D01*
X497007Y672189D01*
X495182Y672011D01*
X494359Y671855D01*
X493596Y671655D01*
X492892Y671411D01*
X492248Y671122D01*
X491663Y670789D01*
X491138Y670411D01*
X490672Y669988D01*
Y683324D01*
X491138Y682901D01*
D02*
G37*
G36*
X727562Y683208D02*
X728607Y682766D01*
X729701Y682375D01*
X730843Y682037D01*
X733271Y681517D01*
X734557Y681335D01*
X737275Y681127D01*
X738706Y681101D01*
Y672211D01*
X737275Y672185D01*
X734557Y671977D01*
X733271Y671795D01*
X730843Y671275D01*
X729701Y670937D01*
X728607Y670546D01*
X727562Y670104D01*
X726564Y669610D01*
Y683702D01*
X727562Y683208D01*
D02*
G37*
G36*
X560708Y669610D02*
X559710Y670104D01*
X558665Y670546D01*
X557571Y670937D01*
X556429Y671275D01*
X554001Y671795D01*
X552715Y671977D01*
X549997Y672185D01*
X548566Y672211D01*
Y681101D01*
X549997Y681127D01*
X552715Y681335D01*
X554001Y681517D01*
X556429Y682037D01*
X557571Y682375D01*
X558665Y682766D01*
X559710Y683208D01*
X560708Y683702D01*
Y669610D01*
D02*
G37*
G36*
X834294Y667670D02*
X834205Y668484D01*
X833938Y669213D01*
X833493Y669856D01*
X832871Y670414D01*
X832071Y670885D01*
X831093Y671271D01*
X829937Y671571D01*
X828604Y671786D01*
X827093Y671914D01*
X825404Y671957D01*
Y680847D01*
X827097Y680891D01*
X828612Y681025D01*
X829950Y681247D01*
X831109Y681558D01*
X832090Y681958D01*
X832893Y682447D01*
X833518Y683025D01*
X833965Y683692D01*
X834233Y684447D01*
X834324Y685292D01*
X834294Y667670D01*
D02*
G37*
G36*
X726939Y658169D02*
X727541Y658051D01*
X728371Y657947D01*
X730716Y657780D01*
X740566Y657606D01*
Y644906D01*
X726564Y644210D01*
Y658302D01*
X726939Y658169D01*
D02*
G37*
G36*
X713108Y644210D02*
X712645Y644391D01*
X711966Y644552D01*
X711073Y644695D01*
X708640Y644923D01*
X703376Y645122D01*
X698791Y645160D01*
X699581Y657860D01*
X713108Y658302D01*
Y644210D01*
D02*
G37*
G36*
X560708D02*
X559710Y644704D01*
X558665Y645146D01*
X557571Y645537D01*
X556429Y645875D01*
X554001Y646395D01*
X552715Y646577D01*
X549997Y646785D01*
X548566Y646811D01*
Y655701D01*
X549997Y655727D01*
X552715Y655935D01*
X554001Y656117D01*
X556429Y656637D01*
X557571Y656975D01*
X558665Y657365D01*
X559710Y657808D01*
X560708Y658302D01*
Y644210D01*
D02*
G37*
G36*
Y618810D02*
X559710Y619304D01*
X558665Y619747D01*
X557571Y620137D01*
X556429Y620475D01*
X554001Y620995D01*
X552715Y621177D01*
X549997Y621385D01*
X548566Y621411D01*
Y630301D01*
X549997Y630327D01*
X552715Y630535D01*
X554001Y630717D01*
X556429Y631237D01*
X557571Y631575D01*
X558665Y631965D01*
X559710Y632408D01*
X560708Y632902D01*
Y618810D01*
D02*
G37*
G36*
X727562Y607008D02*
X728607Y606566D01*
X729701Y606175D01*
X730843Y605837D01*
X733271Y605317D01*
X734557Y605135D01*
X737275Y604927D01*
X738706Y604901D01*
Y596011D01*
X737275Y595985D01*
X734557Y595777D01*
X733271Y595595D01*
X730843Y595075D01*
X729701Y594737D01*
X728607Y594347D01*
X727562Y593904D01*
X726564Y593410D01*
Y607502D01*
X727562Y607008D01*
D02*
G37*
G36*
X560708Y593410D02*
X560333Y593543D01*
X559731Y593661D01*
X558901Y593765D01*
X556556Y593932D01*
X546706Y594106D01*
Y606806D01*
X560708Y607502D01*
Y593410D01*
D02*
G37*
G36*
X809690Y607351D02*
X809957Y606837D01*
X810402Y606383D01*
X811024Y605990D01*
X811824Y605657D01*
X812802Y605385D01*
X813958Y605173D01*
X815291Y605022D01*
X816802Y604931D01*
X818492Y604901D01*
Y596011D01*
X816802Y595981D01*
X813958Y595739D01*
X812802Y595527D01*
X811824Y595255D01*
X811024Y594922D01*
X810402Y594529D01*
X809957Y594075D01*
X809690Y593561D01*
X809602Y592986D01*
Y607925D01*
X809690Y607351D01*
D02*
G37*
G36*
X794662Y592986D02*
X794574Y593561D01*
X794307Y594075D01*
X793862Y594529D01*
X793240Y594922D01*
X792440Y595255D01*
X791462Y595527D01*
X790306Y595739D01*
X788973Y595890D01*
X787462Y595981D01*
X785772Y596011D01*
Y604901D01*
X787462Y604931D01*
X790306Y605173D01*
X791462Y605385D01*
X792440Y605657D01*
X793240Y605990D01*
X793862Y606383D01*
X794307Y606837D01*
X794574Y607351D01*
X794662Y607925D01*
Y592986D01*
D02*
G37*
G36*
X322584Y609952D02*
X312119Y599487D01*
X310056Y596973D01*
X308523Y594105D01*
X307579Y590993D01*
X307260Y587756D01*
Y586265D01*
X306121Y585703D01*
X305871Y585895D01*
X302781Y587175D01*
X300736Y587444D01*
Y574802D01*
Y567546D01*
X306578D01*
X306071Y566996D01*
X305618Y566391D01*
X305218Y565731D01*
X304871Y565015D01*
X304578Y564245D01*
X304338Y563420D01*
X304257Y563040D01*
X305871Y563709D01*
X306121Y563901D01*
X307260Y563339D01*
Y318516D01*
X307579Y315280D01*
X308523Y312167D01*
X310056Y309299D01*
X312119Y306785D01*
X320628Y298276D01*
X323142Y296213D01*
X326010Y294680D01*
X329123Y293736D01*
X332359Y293417D01*
X455281D01*
X458390Y290308D01*
Y267664D01*
X458382Y267606D01*
X458380Y266625D01*
X458351Y265411D01*
X456705Y262332D01*
X455580Y258621D01*
X455200Y254762D01*
X455580Y250903D01*
X456705Y247192D01*
X458533Y243773D01*
X460206Y241735D01*
X460249Y241292D01*
Y219582D01*
X459416Y218567D01*
X450850D01*
Y206502D01*
Y194437D01*
X459416D01*
X460993Y192515D01*
X462522Y191261D01*
X462067Y189991D01*
X153676D01*
X148589Y195078D01*
Y253238D01*
X188722D01*
Y298958D01*
X180593D01*
Y450336D01*
X188982Y458725D01*
X255380D01*
X257218Y458584D01*
X257821Y458499D01*
X259512Y458137D01*
X260007Y457990D01*
X260558Y457794D01*
X261050Y457586D01*
X261772Y457228D01*
X262079Y457123D01*
X262198Y457060D01*
X262406Y456352D01*
X262409Y455621D01*
X261994Y455302D01*
X260365Y453180D01*
X259342Y450708D01*
X259160Y449326D01*
X286940D01*
X286758Y450708D01*
X285735Y453180D01*
X284106Y455302D01*
X283518Y455753D01*
X283902Y457060D01*
X286786Y458601D01*
X289493Y460823D01*
X291715Y463530D01*
X293366Y466619D01*
X294383Y469971D01*
X294726Y473456D01*
X294383Y476941D01*
X293366Y480293D01*
X291715Y483382D01*
X290233Y485187D01*
X289541Y486156D01*
X290233Y487125D01*
X291715Y488930D01*
X293366Y492019D01*
X294383Y495370D01*
X294726Y498856D01*
X294383Y502341D01*
X293514Y505206D01*
X294241Y506476D01*
X294640D01*
Y542036D01*
X262085D01*
X261651Y542093D01*
X261216Y542036D01*
X251460D01*
Y538987D01*
X246653D01*
X246429Y538996D01*
X244884Y540264D01*
X241556Y542043D01*
X237944Y543139D01*
X234188Y543509D01*
X230432Y543139D01*
X226820Y542043D01*
X223492Y540264D01*
X220574Y537870D01*
X218180Y534952D01*
X216401Y531624D01*
X215305Y528012D01*
X214935Y524256D01*
X215305Y520500D01*
X216401Y516888D01*
X218180Y513560D01*
X219824Y511556D01*
X218180Y509552D01*
X216401Y506224D01*
X215305Y502612D01*
X214935Y498856D01*
X215305Y495100D01*
X216401Y491488D01*
X217583Y489276D01*
X216930Y488187D01*
X182880D01*
X179067Y487685D01*
X175515Y486213D01*
X172464Y483872D01*
X155446Y466854D01*
X153104Y463803D01*
X151633Y460251D01*
X151131Y456438D01*
Y298958D01*
X148589D01*
Y578860D01*
X180854Y611125D01*
X322098D01*
X322584Y609952D01*
D02*
G37*
G36*
X807682Y580153D02*
X807948Y580016D01*
X808286Y579895D01*
X808696Y579791D01*
X809179Y579702D01*
X810360Y579573D01*
X811830Y579509D01*
X812673Y579501D01*
Y570611D01*
X811830Y570603D01*
X809179Y570410D01*
X808696Y570321D01*
X808286Y570217D01*
X807948Y570096D01*
X807682Y569959D01*
X807488Y569806D01*
Y580306D01*
X807682Y580153D01*
D02*
G37*
G36*
X796776Y569806D02*
X796582Y569959D01*
X796316Y570096D01*
X795978Y570217D01*
X795568Y570321D01*
X795085Y570410D01*
X793904Y570539D01*
X792434Y570603D01*
X791591Y570611D01*
Y579501D01*
X792434Y579509D01*
X795085Y579702D01*
X795568Y579791D01*
X795978Y579895D01*
X796316Y580016D01*
X796582Y580153D01*
X796776Y580306D01*
Y569806D01*
D02*
G37*
G36*
X727562Y581608D02*
X728607Y581166D01*
X729701Y580775D01*
X730843Y580437D01*
X733271Y579917D01*
X734557Y579735D01*
X737275Y579527D01*
X738706Y579501D01*
Y570611D01*
X737275Y570585D01*
X734557Y570377D01*
X733271Y570195D01*
X730843Y569675D01*
X729701Y569337D01*
X728607Y568946D01*
X727562Y568504D01*
X726564Y568010D01*
Y582102D01*
X727562Y581608D01*
D02*
G37*
G36*
X807682Y554753D02*
X807948Y554616D01*
X808286Y554495D01*
X808696Y554391D01*
X809179Y554302D01*
X810360Y554173D01*
X811830Y554109D01*
X812673Y554101D01*
Y545211D01*
X811830Y545203D01*
X809179Y545010D01*
X808696Y544921D01*
X808286Y544817D01*
X807948Y544696D01*
X807682Y544559D01*
X807488Y544406D01*
Y554906D01*
X807682Y554753D01*
D02*
G37*
G36*
X796776Y544406D02*
X796582Y544559D01*
X796316Y544696D01*
X795978Y544817D01*
X795568Y544921D01*
X795085Y545010D01*
X793904Y545139D01*
X792434Y545203D01*
X791591Y545211D01*
Y554101D01*
X792434Y554109D01*
X795085Y554302D01*
X795568Y554391D01*
X795978Y554495D01*
X796316Y554616D01*
X796582Y554753D01*
X796776Y554906D01*
Y544406D01*
D02*
G37*
G36*
X727562Y556208D02*
X728607Y555765D01*
X729701Y555375D01*
X730843Y555037D01*
X733271Y554517D01*
X734557Y554335D01*
X737275Y554127D01*
X738706Y554101D01*
Y545211D01*
X737275Y545185D01*
X734557Y544977D01*
X733271Y544795D01*
X730843Y544275D01*
X729701Y543937D01*
X728607Y543546D01*
X727562Y543104D01*
X726564Y542610D01*
Y556702D01*
X727562Y556208D01*
D02*
G37*
G36*
X575162D02*
X576207Y555765D01*
X577301Y555375D01*
X578443Y555037D01*
X580871Y554517D01*
X582158Y554335D01*
X584875Y554127D01*
X586306Y554101D01*
Y545211D01*
X584875Y545185D01*
X582158Y544977D01*
X580871Y544795D01*
X578443Y544275D01*
X577301Y543937D01*
X576207Y543546D01*
X575162Y543104D01*
X574164Y542610D01*
Y556702D01*
X575162Y556208D01*
D02*
G37*
G36*
X355638Y541982D02*
X355942Y538094D01*
X356208Y536341D01*
X356550Y534715D01*
X356968Y533216D01*
X357463Y531844D01*
X358033Y530600D01*
X358679Y529483D01*
X359401Y528493D01*
X339099D01*
X339821Y529483D01*
X340467Y530600D01*
X341037Y531844D01*
X341532Y533216D01*
X341950Y534715D01*
X342292Y536341D01*
X342558Y538094D01*
X342862Y541982D01*
X342900Y544117D01*
X355600D01*
X355638Y541982D01*
D02*
G37*
G36*
X807682Y529353D02*
X807948Y529216D01*
X808286Y529095D01*
X808696Y528991D01*
X809179Y528902D01*
X810360Y528773D01*
X811830Y528709D01*
X812673Y528701D01*
Y519811D01*
X811830Y519803D01*
X809179Y519610D01*
X808696Y519521D01*
X808286Y519417D01*
X807948Y519296D01*
X807682Y519159D01*
X807488Y519006D01*
Y529506D01*
X807682Y529353D01*
D02*
G37*
G36*
X796776Y519006D02*
X796582Y519159D01*
X796316Y519296D01*
X795978Y519417D01*
X795568Y519521D01*
X795085Y519610D01*
X793904Y519739D01*
X792434Y519803D01*
X791591Y519811D01*
Y528701D01*
X792434Y528709D01*
X795085Y528902D01*
X795568Y528991D01*
X795978Y529095D01*
X796316Y529216D01*
X796582Y529353D01*
X796776Y529506D01*
Y519006D01*
D02*
G37*
G36*
X241010Y530204D02*
X241469Y529888D01*
X241991Y529610D01*
X242576Y529369D01*
X243224Y529165D01*
X243936Y528998D01*
X244710Y528868D01*
X245548Y528775D01*
X247414Y528701D01*
Y519811D01*
X246449Y519793D01*
X244710Y519644D01*
X243936Y519514D01*
X243224Y519347D01*
X242576Y519143D01*
X241991Y518902D01*
X241469Y518624D01*
X241010Y518308D01*
X240615Y517956D01*
Y530556D01*
X241010Y530204D01*
D02*
G37*
G36*
X727562Y530808D02*
X728607Y530365D01*
X729701Y529975D01*
X730843Y529637D01*
X733271Y529117D01*
X734557Y528935D01*
X737275Y528727D01*
X738706Y528701D01*
Y519811D01*
X737275Y519785D01*
X734557Y519577D01*
X733271Y519395D01*
X730843Y518875D01*
X729701Y518537D01*
X728607Y518147D01*
X727562Y517704D01*
X726564Y517210D01*
Y531302D01*
X727562Y530808D01*
D02*
G37*
G36*
X575162D02*
X576207Y530365D01*
X577301Y529975D01*
X578443Y529637D01*
X580871Y529117D01*
X582158Y528935D01*
X584875Y528727D01*
X586306Y528701D01*
Y519811D01*
X584875Y519785D01*
X582158Y519577D01*
X580871Y519395D01*
X578443Y518875D01*
X577301Y518537D01*
X576207Y518147D01*
X575162Y517704D01*
X574164Y517210D01*
Y531302D01*
X575162Y530808D01*
D02*
G37*
G36*
X261651Y516666D02*
X261562Y517264D01*
X261295Y517799D01*
X260850Y518270D01*
X260228Y518679D01*
X259428Y519025D01*
X258450Y519308D01*
X257294Y519528D01*
X255961Y519685D01*
X254450Y519780D01*
X252761Y519811D01*
Y528701D01*
X254450Y528732D01*
X257294Y528984D01*
X258450Y529204D01*
X259428Y529487D01*
X260228Y529833D01*
X260850Y530242D01*
X261295Y530714D01*
X261562Y531248D01*
X261651Y531846D01*
Y516666D01*
D02*
G37*
G36*
X614939Y514570D02*
X603872Y510220D01*
X604003Y510623D01*
X604049Y511055D01*
X604008Y511517D01*
X603882Y512009D01*
X603670Y512530D01*
X603371Y513081D01*
X602987Y513662D01*
X602517Y514272D01*
X601961Y514912D01*
X601320Y515582D01*
X608066Y521408D01*
X614939Y514570D01*
D02*
G37*
G36*
X618038Y512399D02*
X618434Y512142D01*
X618896Y511916D01*
X619425Y511719D01*
X620020Y511553D01*
X620682Y511417D01*
X621410Y511311D01*
X623066Y511190D01*
X623993Y511175D01*
Y502285D01*
X623066Y502270D01*
X621410Y502149D01*
X620682Y502043D01*
X620020Y501907D01*
X619425Y501741D01*
X618896Y501544D01*
X618434Y501318D01*
X618038Y501061D01*
X617709Y500774D01*
Y512686D01*
X618038Y512399D01*
D02*
G37*
G36*
X796776Y493606D02*
X796582Y493759D01*
X796316Y493896D01*
X795978Y494017D01*
X795568Y494121D01*
X795085Y494210D01*
X793904Y494339D01*
X792434Y494403D01*
X791591Y494411D01*
Y503301D01*
X792434Y503309D01*
X795085Y503502D01*
X795568Y503591D01*
X795978Y503695D01*
X796316Y503816D01*
X796582Y503953D01*
X796776Y504106D01*
Y493606D01*
D02*
G37*
G36*
X241010Y504804D02*
X241469Y504488D01*
X241991Y504210D01*
X242576Y503969D01*
X243224Y503765D01*
X243936Y503598D01*
X244710Y503468D01*
X245548Y503375D01*
X247414Y503301D01*
Y494411D01*
X246449Y494393D01*
X244710Y494244D01*
X243936Y494114D01*
X243224Y493947D01*
X242576Y493743D01*
X241991Y493502D01*
X241469Y493224D01*
X241010Y492909D01*
X240615Y492556D01*
Y505156D01*
X241010Y504804D01*
D02*
G37*
G36*
X489614Y505101D02*
X490139Y504723D01*
X490723Y504390D01*
X491368Y504101D01*
X492072Y503857D01*
X492835Y503657D01*
X493658Y503501D01*
X494541Y503390D01*
X495483Y503323D01*
X496485Y503301D01*
Y494411D01*
X495483Y494389D01*
X493658Y494211D01*
X492835Y494055D01*
X492072Y493855D01*
X491368Y493611D01*
X490723Y493322D01*
X490139Y492989D01*
X489614Y492611D01*
X489148Y492188D01*
Y505523D01*
X489614Y505101D01*
D02*
G37*
G36*
X727562Y505408D02*
X728607Y504966D01*
X729701Y504575D01*
X730843Y504237D01*
X733271Y503717D01*
X734557Y503535D01*
X737275Y503327D01*
X738706Y503301D01*
Y494411D01*
X737275Y494385D01*
X734557Y494177D01*
X733271Y493995D01*
X730843Y493475D01*
X729701Y493137D01*
X728607Y492747D01*
X727562Y492304D01*
X726564Y491810D01*
Y505902D01*
X727562Y505408D01*
D02*
G37*
G36*
X560708Y491810D02*
X559710Y492304D01*
X558665Y492747D01*
X557571Y493137D01*
X556429Y493475D01*
X554001Y493995D01*
X552715Y494177D01*
X549997Y494385D01*
X548566Y494411D01*
Y503301D01*
X549997Y503327D01*
X552715Y503535D01*
X554001Y503717D01*
X556429Y504237D01*
X557571Y504575D01*
X558665Y504966D01*
X559710Y505408D01*
X560708Y505902D01*
Y491810D01*
D02*
G37*
G36*
X266322D02*
X265324Y492304D01*
X264279Y492747D01*
X263185Y493137D01*
X262043Y493475D01*
X259615Y493995D01*
X258328Y494177D01*
X255611Y494385D01*
X254180Y494411D01*
Y503301D01*
X255611Y503327D01*
X258328Y503535D01*
X259615Y503717D01*
X262043Y504237D01*
X263185Y504575D01*
X264279Y504966D01*
X265324Y505408D01*
X266322Y505902D01*
Y491810D01*
D02*
G37*
G36*
X796776Y468206D02*
X796582Y468359D01*
X796316Y468496D01*
X795978Y468617D01*
X795568Y468721D01*
X795085Y468810D01*
X793904Y468939D01*
X792434Y469003D01*
X791591Y469011D01*
Y477901D01*
X792434Y477909D01*
X795085Y478102D01*
X795568Y478191D01*
X795978Y478295D01*
X796316Y478416D01*
X796582Y478553D01*
X796776Y478706D01*
Y468206D01*
D02*
G37*
G36*
X401191Y479341D02*
X401636Y479039D01*
X402144Y478772D01*
X402717Y478541D01*
X403353Y478345D01*
X404054Y478186D01*
X404818Y478061D01*
X405646Y477972D01*
X407495Y477901D01*
Y469011D01*
X406539Y468993D01*
X404818Y468851D01*
X404054Y468727D01*
X403353Y468567D01*
X402717Y468371D01*
X402144Y468140D01*
X401636Y467873D01*
X401191Y467571D01*
X400811Y467233D01*
Y479679D01*
X401191Y479341D01*
D02*
G37*
G36*
X388113Y467233D02*
X387733Y467571D01*
X387288Y467873D01*
X386780Y468140D01*
X386207Y468371D01*
X385571Y468567D01*
X384870Y468727D01*
X384106Y468851D01*
X383278Y468940D01*
X381429Y469011D01*
Y477901D01*
X382385Y477919D01*
X384106Y478061D01*
X384870Y478186D01*
X385571Y478345D01*
X386207Y478541D01*
X386780Y478772D01*
X387288Y479039D01*
X387733Y479341D01*
X388113Y479679D01*
Y467233D01*
D02*
G37*
G36*
X489614Y479701D02*
X490139Y479323D01*
X490723Y478990D01*
X491368Y478701D01*
X492072Y478457D01*
X492835Y478257D01*
X493658Y478101D01*
X494541Y477990D01*
X495483Y477923D01*
X496485Y477901D01*
Y469011D01*
X495483Y468989D01*
X493658Y468811D01*
X492835Y468655D01*
X492072Y468455D01*
X491368Y468211D01*
X490723Y467922D01*
X490139Y467589D01*
X489614Y467211D01*
X489148Y466788D01*
Y480123D01*
X489614Y479701D01*
D02*
G37*
G36*
X475544Y466788D02*
X475078Y467211D01*
X474553Y467589D01*
X473969Y467922D01*
X473324Y468211D01*
X472620Y468455D01*
X471857Y468655D01*
X471034Y468811D01*
X470151Y468922D01*
X469209Y468989D01*
X468207Y469011D01*
Y477901D01*
X469209Y477923D01*
X471034Y478101D01*
X471857Y478257D01*
X472620Y478457D01*
X473324Y478701D01*
X473969Y478990D01*
X474553Y479323D01*
X475078Y479701D01*
X475544Y480123D01*
Y466788D01*
D02*
G37*
G36*
X727562Y480008D02*
X728607Y479566D01*
X729701Y479175D01*
X730843Y478837D01*
X733271Y478317D01*
X734557Y478135D01*
X737275Y477927D01*
X738706Y477901D01*
Y469011D01*
X737275Y468985D01*
X734557Y468777D01*
X733271Y468595D01*
X730843Y468075D01*
X729701Y467737D01*
X728607Y467346D01*
X727562Y466904D01*
X726564Y466410D01*
Y480502D01*
X727562Y480008D01*
D02*
G37*
G36*
X560708Y466410D02*
X559710Y466904D01*
X558665Y467346D01*
X557571Y467737D01*
X556429Y468075D01*
X554001Y468595D01*
X552715Y468777D01*
X549997Y468985D01*
X548566Y469011D01*
Y477901D01*
X549997Y477927D01*
X552715Y478135D01*
X554001Y478317D01*
X556429Y478837D01*
X557571Y479175D01*
X558665Y479566D01*
X559710Y480008D01*
X560708Y480502D01*
Y466410D01*
D02*
G37*
G36*
X356976Y480008D02*
X358021Y479566D01*
X359115Y479175D01*
X360257Y478837D01*
X362685Y478317D01*
X363971Y478135D01*
X366689Y477927D01*
X368120Y477901D01*
Y469011D01*
X366689Y468985D01*
X363971Y468777D01*
X362685Y468595D01*
X360257Y468075D01*
X359115Y467737D01*
X358021Y467346D01*
X356976Y466904D01*
X355978Y466410D01*
Y480502D01*
X356976Y480008D01*
D02*
G37*
G36*
X266322Y466410D02*
X265324Y466904D01*
X264279Y467346D01*
X263185Y467737D01*
X262043Y468075D01*
X259615Y468595D01*
X258328Y468777D01*
X255611Y468985D01*
X254180Y469011D01*
Y477901D01*
X255611Y477927D01*
X258328Y478135D01*
X259615Y478317D01*
X262043Y478837D01*
X263185Y479175D01*
X264279Y479566D01*
X265324Y480008D01*
X266322Y480502D01*
Y466410D01*
D02*
G37*
G36*
X796776Y442806D02*
X796582Y442959D01*
X796316Y443096D01*
X795978Y443217D01*
X795568Y443321D01*
X795085Y443410D01*
X793904Y443539D01*
X792434Y443603D01*
X791591Y443611D01*
Y452501D01*
X792434Y452509D01*
X795085Y452702D01*
X795568Y452791D01*
X795978Y452895D01*
X796316Y453016D01*
X796582Y453153D01*
X796776Y453306D01*
Y442806D01*
D02*
G37*
G36*
X442593Y453941D02*
X443038Y453639D01*
X443546Y453372D01*
X444119Y453141D01*
X444755Y452946D01*
X445456Y452785D01*
X446220Y452661D01*
X447048Y452572D01*
X448897Y452501D01*
Y443611D01*
X447941Y443593D01*
X446220Y443451D01*
X445456Y443326D01*
X444755Y443167D01*
X444119Y442971D01*
X443546Y442740D01*
X443038Y442473D01*
X442593Y442171D01*
X442213Y441833D01*
Y454279D01*
X442593Y453941D01*
D02*
G37*
G36*
X429515Y441833D02*
X429135Y442171D01*
X428690Y442473D01*
X428182Y442740D01*
X427609Y442971D01*
X426973Y443167D01*
X426272Y443326D01*
X425508Y443451D01*
X424680Y443540D01*
X422831Y443611D01*
Y452501D01*
X423787Y452519D01*
X425508Y452661D01*
X426272Y452785D01*
X426973Y452946D01*
X427609Y453141D01*
X428182Y453372D01*
X428690Y453639D01*
X429135Y453941D01*
X429515Y454279D01*
Y441833D01*
D02*
G37*
G36*
X489614Y454301D02*
X490139Y453923D01*
X490723Y453590D01*
X491368Y453301D01*
X492072Y453057D01*
X492835Y452857D01*
X493658Y452701D01*
X494541Y452590D01*
X495483Y452523D01*
X496485Y452501D01*
Y443611D01*
X495483Y443589D01*
X493658Y443411D01*
X492835Y443255D01*
X492072Y443055D01*
X491368Y442811D01*
X490723Y442522D01*
X490139Y442189D01*
X489614Y441811D01*
X489148Y441389D01*
Y454724D01*
X489614Y454301D01*
D02*
G37*
G36*
X475544Y441389D02*
X475078Y441811D01*
X474553Y442189D01*
X473969Y442522D01*
X473324Y442811D01*
X472620Y443055D01*
X471857Y443255D01*
X471034Y443411D01*
X470151Y443522D01*
X469209Y443589D01*
X468207Y443611D01*
Y452501D01*
X469209Y452523D01*
X471034Y452701D01*
X471857Y452857D01*
X472620Y453057D01*
X473324Y453301D01*
X473969Y453590D01*
X474553Y453923D01*
X475078Y454301D01*
X475544Y454724D01*
Y441389D01*
D02*
G37*
G36*
X727562Y454608D02*
X728607Y454165D01*
X729701Y453775D01*
X730843Y453437D01*
X733271Y452917D01*
X734557Y452735D01*
X737275Y452527D01*
X738706Y452501D01*
Y443611D01*
X737275Y443585D01*
X734557Y443377D01*
X733271Y443195D01*
X730843Y442675D01*
X729701Y442337D01*
X728607Y441946D01*
X727562Y441504D01*
X726564Y441010D01*
Y455102D01*
X727562Y454608D01*
D02*
G37*
G36*
X560708Y441010D02*
X559710Y441504D01*
X558665Y441946D01*
X557571Y442337D01*
X556429Y442675D01*
X554001Y443195D01*
X552715Y443377D01*
X549997Y443585D01*
X548566Y443611D01*
Y452501D01*
X549997Y452527D01*
X552715Y452735D01*
X554001Y452917D01*
X556429Y453437D01*
X557571Y453775D01*
X558665Y454165D01*
X559710Y454608D01*
X560708Y455102D01*
Y441010D01*
D02*
G37*
G36*
X356976Y454608D02*
X358021Y454165D01*
X359115Y453775D01*
X360257Y453437D01*
X362685Y452917D01*
X363971Y452735D01*
X366689Y452527D01*
X368120Y452501D01*
Y443611D01*
X366689Y443585D01*
X363971Y443377D01*
X362685Y443195D01*
X360257Y442675D01*
X359115Y442337D01*
X358021Y441946D01*
X356976Y441504D01*
X355978Y441010D01*
Y455102D01*
X356976Y454608D01*
D02*
G37*
G36*
X796776Y417406D02*
X796582Y417559D01*
X796316Y417696D01*
X795978Y417817D01*
X795568Y417921D01*
X795085Y418010D01*
X793904Y418139D01*
X792434Y418203D01*
X791591Y418211D01*
Y427101D01*
X792434Y427109D01*
X795085Y427302D01*
X795568Y427391D01*
X795978Y427495D01*
X796316Y427616D01*
X796582Y427753D01*
X796776Y427906D01*
Y417406D01*
D02*
G37*
G36*
X489614Y428901D02*
X490139Y428523D01*
X490723Y428190D01*
X491368Y427901D01*
X492072Y427657D01*
X492835Y427457D01*
X493658Y427301D01*
X494541Y427190D01*
X495483Y427123D01*
X496485Y427101D01*
Y418211D01*
X495483Y418189D01*
X493658Y418011D01*
X492835Y417855D01*
X492072Y417655D01*
X491368Y417411D01*
X490723Y417122D01*
X490139Y416789D01*
X489614Y416411D01*
X489148Y415989D01*
Y429324D01*
X489614Y428901D01*
D02*
G37*
G36*
X727562Y429208D02*
X728607Y428765D01*
X729701Y428375D01*
X730843Y428037D01*
X733271Y427517D01*
X734557Y427335D01*
X737275Y427127D01*
X738706Y427101D01*
Y418211D01*
X737275Y418185D01*
X734557Y417977D01*
X733271Y417795D01*
X730843Y417275D01*
X729701Y416937D01*
X728607Y416547D01*
X727562Y416104D01*
X726564Y415610D01*
Y429702D01*
X727562Y429208D01*
D02*
G37*
G36*
X560708Y415610D02*
X559710Y416104D01*
X558665Y416547D01*
X557571Y416937D01*
X556429Y417275D01*
X554001Y417795D01*
X552715Y417977D01*
X549997Y418185D01*
X548566Y418211D01*
Y427101D01*
X549997Y427127D01*
X552715Y427335D01*
X554001Y427517D01*
X556429Y428037D01*
X557571Y428375D01*
X558665Y428765D01*
X559710Y429208D01*
X560708Y429702D01*
Y415610D01*
D02*
G37*
G36*
X807682Y402353D02*
X807948Y402216D01*
X808286Y402095D01*
X808696Y401991D01*
X809179Y401902D01*
X810360Y401773D01*
X811830Y401709D01*
X812673Y401701D01*
Y392811D01*
X811830Y392803D01*
X809179Y392610D01*
X808696Y392521D01*
X808286Y392417D01*
X807948Y392296D01*
X807682Y392159D01*
X807488Y392006D01*
Y402506D01*
X807682Y402353D01*
D02*
G37*
G36*
X796776Y392006D02*
X796582Y392159D01*
X796316Y392296D01*
X795978Y392417D01*
X795568Y392521D01*
X795085Y392610D01*
X793904Y392739D01*
X792434Y392803D01*
X791591Y392811D01*
Y401701D01*
X792434Y401709D01*
X795085Y401902D01*
X795568Y401991D01*
X795978Y402095D01*
X796316Y402216D01*
X796582Y402353D01*
X796776Y402506D01*
Y392006D01*
D02*
G37*
G36*
X727562Y403808D02*
X728607Y403366D01*
X729701Y402975D01*
X730843Y402637D01*
X733271Y402117D01*
X734557Y401935D01*
X737275Y401727D01*
X738706Y401701D01*
Y392811D01*
X737275Y392785D01*
X734557Y392577D01*
X733271Y392395D01*
X730843Y391875D01*
X729701Y391537D01*
X728607Y391147D01*
X727562Y390704D01*
X726564Y390210D01*
Y404302D01*
X727562Y403808D01*
D02*
G37*
G36*
X560708Y390210D02*
X559710Y390704D01*
X558665Y391147D01*
X557571Y391537D01*
X556429Y391875D01*
X554001Y392395D01*
X552715Y392577D01*
X549997Y392785D01*
X548566Y392811D01*
Y401701D01*
X549997Y401727D01*
X552715Y401935D01*
X554001Y402117D01*
X556429Y402637D01*
X557571Y402975D01*
X558665Y403366D01*
X559710Y403808D01*
X560708Y404302D01*
Y390210D01*
D02*
G37*
G36*
X796776Y366606D02*
X796582Y366759D01*
X796316Y366896D01*
X795978Y367017D01*
X795568Y367121D01*
X795085Y367210D01*
X793904Y367339D01*
X792434Y367403D01*
X791591Y367411D01*
Y376301D01*
X792434Y376309D01*
X795085Y376502D01*
X795568Y376591D01*
X795978Y376695D01*
X796316Y376816D01*
X796582Y376953D01*
X796776Y377106D01*
Y366606D01*
D02*
G37*
G36*
X727562Y378408D02*
X728607Y377966D01*
X729701Y377575D01*
X730843Y377237D01*
X733271Y376717D01*
X734557Y376535D01*
X737275Y376327D01*
X738706Y376301D01*
Y367411D01*
X737275Y367385D01*
X734557Y367177D01*
X733271Y366995D01*
X730843Y366475D01*
X729701Y366137D01*
X728607Y365746D01*
X727562Y365304D01*
X726564Y364810D01*
Y378902D01*
X727562Y378408D01*
D02*
G37*
G36*
X713108Y364810D02*
X712110Y365304D01*
X711065Y365746D01*
X709971Y366137D01*
X708829Y366475D01*
X706401Y366995D01*
X705115Y367177D01*
X702397Y367385D01*
X700966Y367411D01*
Y376301D01*
X702397Y376327D01*
X705115Y376535D01*
X706401Y376717D01*
X708829Y377237D01*
X709971Y377575D01*
X711065Y377966D01*
X712110Y378408D01*
X713108Y378902D01*
Y364810D01*
D02*
G37*
G36*
X575162Y378408D02*
X576207Y377966D01*
X577301Y377575D01*
X578443Y377237D01*
X580871Y376717D01*
X582158Y376535D01*
X584875Y376327D01*
X586306Y376301D01*
Y367411D01*
X584875Y367385D01*
X582158Y367177D01*
X580871Y366995D01*
X578443Y366475D01*
X577301Y366137D01*
X576207Y365746D01*
X575162Y365304D01*
X574164Y364810D01*
Y378902D01*
X575162Y378408D01*
D02*
G37*
G36*
X560708Y364810D02*
X559710Y365304D01*
X558665Y365746D01*
X557571Y366137D01*
X556429Y366475D01*
X554001Y366995D01*
X552715Y367177D01*
X549997Y367385D01*
X548566Y367411D01*
Y376301D01*
X549997Y376327D01*
X552715Y376535D01*
X554001Y376717D01*
X556429Y377237D01*
X557571Y377575D01*
X558665Y377966D01*
X559710Y378408D01*
X560708Y378902D01*
Y364810D01*
D02*
G37*
G36*
X506625Y298294D02*
X506247Y297769D01*
X505914Y297185D01*
X505625Y296540D01*
X505381Y295836D01*
X505181Y295073D01*
X505025Y294250D01*
X504914Y293367D01*
X504847Y292425D01*
X504825Y291423D01*
X495935D01*
X495913Y292425D01*
X495735Y294250D01*
X495579Y295073D01*
X495379Y295836D01*
X495135Y296540D01*
X494846Y297185D01*
X494513Y297769D01*
X494135Y298294D01*
X493713Y298760D01*
X507048D01*
X506625Y298294D01*
D02*
G37*
G36*
X170351Y295963D02*
X170485Y294446D01*
X170707Y293108D01*
X171018Y291948D01*
X171418Y290967D01*
X171907Y290164D01*
X172485Y289540D01*
X173152Y289094D01*
X173907Y288826D01*
X174752Y288737D01*
X156972D01*
X157816Y288826D01*
X158572Y289094D01*
X159239Y289540D01*
X159817Y290164D01*
X160306Y290967D01*
X160706Y291948D01*
X161017Y293108D01*
X161239Y294446D01*
X161373Y295963D01*
X161417Y297658D01*
X170307D01*
X170351Y295963D01*
D02*
G37*
G36*
X481647Y261564D02*
X468312D01*
X468373Y261680D01*
X468427Y261904D01*
X468474Y262236D01*
X468551Y263223D01*
X468627Y266490D01*
X468630Y267577D01*
X481330D01*
X481647Y261564D01*
D02*
G37*
G36*
X533048Y261007D02*
X533573Y260629D01*
X534157Y260296D01*
X534802Y260007D01*
X535506Y259763D01*
X536269Y259563D01*
X537092Y259407D01*
X537975Y259296D01*
X538917Y259229D01*
X539919Y259207D01*
Y250317D01*
X538917Y250295D01*
X537092Y250117D01*
X536269Y249961D01*
X535506Y249761D01*
X534802Y249517D01*
X534157Y249228D01*
X533573Y248895D01*
X533048Y248517D01*
X532582Y248095D01*
Y261430D01*
X533048Y261007D01*
D02*
G37*
G36*
X479464Y250139D02*
X479442Y248212D01*
X479442Y247960D01*
X481647D01*
X481225Y247494D01*
X480847Y246969D01*
X480514Y246385D01*
X480225Y245740D01*
X479981Y245036D01*
X479781Y244273D01*
X479625Y243450D01*
X479514Y242567D01*
X479447Y241625D01*
X479430Y240866D01*
X479425Y237527D01*
X470535D01*
X470521Y241255D01*
X470513Y241625D01*
X470335Y243450D01*
X470179Y244273D01*
X469979Y245036D01*
X469735Y245740D01*
X469446Y246385D01*
X469113Y246969D01*
X468735Y247494D01*
X468312Y247960D01*
X470496D01*
X470487Y250275D01*
X479473D01*
X479464Y250139D01*
D02*
G37*
G36*
X784247Y219639D02*
X784425Y217814D01*
X784581Y216991D01*
X784781Y216228D01*
X785025Y215524D01*
X785314Y214879D01*
X785647Y214295D01*
X786025Y213770D01*
X786448Y213304D01*
X773112D01*
X773535Y213770D01*
X773913Y214295D01*
X774246Y214879D01*
X774535Y215524D01*
X774779Y216228D01*
X774979Y216991D01*
X775135Y217814D01*
X775246Y218697D01*
X775313Y219639D01*
X775335Y220641D01*
X784225D01*
X784247Y219639D01*
D02*
G37*
G36*
X758847D02*
X759025Y217814D01*
X759181Y216991D01*
X759381Y216228D01*
X759625Y215524D01*
X759914Y214879D01*
X760247Y214295D01*
X760625Y213770D01*
X761048Y213304D01*
X747712D01*
X748135Y213770D01*
X748513Y214295D01*
X748846Y214879D01*
X749135Y215524D01*
X749379Y216228D01*
X749579Y216991D01*
X749735Y217814D01*
X749846Y218697D01*
X749913Y219639D01*
X749935Y220641D01*
X758825D01*
X758847Y219639D01*
D02*
G37*
G36*
X733447D02*
X733625Y217814D01*
X733781Y216991D01*
X733981Y216228D01*
X734225Y215524D01*
X734514Y214879D01*
X734847Y214295D01*
X735225Y213770D01*
X735648Y213304D01*
X722312D01*
X722735Y213770D01*
X723113Y214295D01*
X723446Y214879D01*
X723735Y215524D01*
X723979Y216228D01*
X724179Y216991D01*
X724335Y217814D01*
X724446Y218697D01*
X724513Y219639D01*
X724535Y220641D01*
X733425D01*
X733447Y219639D01*
D02*
G37*
G36*
X708047D02*
X708225Y217814D01*
X708381Y216991D01*
X708581Y216228D01*
X708825Y215524D01*
X709114Y214879D01*
X709447Y214295D01*
X709825Y213770D01*
X710247Y213304D01*
X696913D01*
X697335Y213770D01*
X697713Y214295D01*
X698046Y214879D01*
X698335Y215524D01*
X698579Y216228D01*
X698779Y216991D01*
X698935Y217814D01*
X699046Y218697D01*
X699113Y219639D01*
X699135Y220641D01*
X708025D01*
X708047Y219639D01*
D02*
G37*
G36*
X682647D02*
X682825Y217814D01*
X682981Y216991D01*
X683181Y216228D01*
X683425Y215524D01*
X683714Y214879D01*
X684047Y214295D01*
X684425Y213770D01*
X684847Y213304D01*
X671513D01*
X671935Y213770D01*
X672313Y214295D01*
X672646Y214879D01*
X672935Y215524D01*
X673179Y216228D01*
X673379Y216991D01*
X673535Y217814D01*
X673646Y218697D01*
X673713Y219639D01*
X673735Y220641D01*
X682625D01*
X682647Y219639D01*
D02*
G37*
G36*
X657247D02*
X657425Y217814D01*
X657581Y216991D01*
X657781Y216228D01*
X658025Y215524D01*
X658314Y214879D01*
X658647Y214295D01*
X659025Y213770D01*
X659447Y213304D01*
X646113D01*
X646535Y213770D01*
X646913Y214295D01*
X647246Y214879D01*
X647535Y215524D01*
X647779Y216228D01*
X647979Y216991D01*
X648135Y217814D01*
X648246Y218697D01*
X648313Y219639D01*
X648335Y220641D01*
X657225D01*
X657247Y219639D01*
D02*
G37*
G36*
X631847D02*
X632025Y217814D01*
X632181Y216991D01*
X632381Y216228D01*
X632625Y215524D01*
X632914Y214879D01*
X633247Y214295D01*
X633625Y213770D01*
X634048Y213304D01*
X620713D01*
X621135Y213770D01*
X621513Y214295D01*
X621846Y214879D01*
X622135Y215524D01*
X622379Y216228D01*
X622579Y216991D01*
X622735Y217814D01*
X622846Y218697D01*
X622913Y219639D01*
X622935Y220641D01*
X631825D01*
X631847Y219639D01*
D02*
G37*
G36*
X606447D02*
X606625Y217814D01*
X606781Y216991D01*
X606981Y216228D01*
X607225Y215524D01*
X607514Y214879D01*
X607847Y214295D01*
X608225Y213770D01*
X608647Y213304D01*
X595312D01*
X595735Y213770D01*
X596113Y214295D01*
X596446Y214879D01*
X596735Y215524D01*
X596979Y216228D01*
X597179Y216991D01*
X597335Y217814D01*
X597446Y218697D01*
X597513Y219639D01*
X597535Y220641D01*
X606425D01*
X606447Y219639D01*
D02*
G37*
G36*
X555647D02*
X555825Y217814D01*
X555981Y216991D01*
X556181Y216228D01*
X556425Y215524D01*
X556714Y214879D01*
X557047Y214295D01*
X557425Y213770D01*
X557848Y213304D01*
X544512D01*
X544935Y213770D01*
X545313Y214295D01*
X545646Y214879D01*
X545935Y215524D01*
X546179Y216228D01*
X546379Y216991D01*
X546535Y217814D01*
X546646Y218697D01*
X546713Y219639D01*
X546735Y220641D01*
X555625D01*
X555647Y219639D01*
D02*
G37*
G36*
X504847D02*
X505025Y217814D01*
X505181Y216991D01*
X505381Y216228D01*
X505625Y215524D01*
X505914Y214879D01*
X506247Y214295D01*
X506625Y213770D01*
X507048Y213304D01*
X493713D01*
X494135Y213770D01*
X494513Y214295D01*
X494846Y214879D01*
X495135Y215524D01*
X495379Y216228D01*
X495579Y216991D01*
X495735Y217814D01*
X495846Y218697D01*
X495913Y219639D01*
X495935Y220641D01*
X504825D01*
X504847Y219639D01*
D02*
G37*
G36*
X811425Y199234D02*
X811047Y198709D01*
X810714Y198125D01*
X810425Y197480D01*
X810181Y196776D01*
X809981Y196013D01*
X809825Y195190D01*
X809714Y194307D01*
X809647Y193365D01*
X809625Y192363D01*
X800735D01*
X800713Y193365D01*
X800535Y195190D01*
X800379Y196013D01*
X800179Y196776D01*
X799935Y197480D01*
X799646Y198125D01*
X799313Y198709D01*
X798935Y199234D01*
X798512Y199700D01*
X811848D01*
X811425Y199234D01*
D02*
G37*
G36*
X582825D02*
X582447Y198709D01*
X582114Y198125D01*
X581825Y197480D01*
X581581Y196776D01*
X581381Y196013D01*
X581225Y195190D01*
X581114Y194307D01*
X581047Y193365D01*
X581025Y192363D01*
X572135D01*
X572113Y193365D01*
X571935Y195190D01*
X571779Y196013D01*
X571579Y196776D01*
X571335Y197480D01*
X571046Y198125D01*
X570713Y198709D01*
X570335Y199234D01*
X569912Y199700D01*
X583247D01*
X582825Y199234D01*
D02*
G37*
G36*
X557425D02*
X557047Y198709D01*
X556714Y198125D01*
X556425Y197480D01*
X556181Y196776D01*
X555981Y196013D01*
X555825Y195190D01*
X555714Y194307D01*
X555647Y193365D01*
X555625Y192363D01*
X546735D01*
X546713Y193365D01*
X546535Y195190D01*
X546379Y196013D01*
X546179Y196776D01*
X545935Y197480D01*
X545646Y198125D01*
X545313Y198709D01*
X544935Y199234D01*
X544512Y199700D01*
X557848D01*
X557425Y199234D01*
D02*
G37*
G36*
X532025D02*
X531647Y198709D01*
X531314Y198125D01*
X531025Y197480D01*
X530781Y196776D01*
X530581Y196013D01*
X530425Y195190D01*
X530314Y194307D01*
X530247Y193365D01*
X530225Y192363D01*
X521335D01*
X521313Y193365D01*
X521135Y195190D01*
X520979Y196013D01*
X520779Y196776D01*
X520535Y197480D01*
X520246Y198125D01*
X519913Y198709D01*
X519535Y199234D01*
X519113Y199700D01*
X532448D01*
X532025Y199234D01*
D02*
G37*
%LPC*%
G36*
X314902Y828802D02*
X303530D01*
Y822848D01*
X309564Y823009D01*
X309072Y822446D01*
X308635Y821829D01*
X308253Y821158D01*
X307925Y820434D01*
X307653Y819656D01*
X307435Y818824D01*
X307364Y818440D01*
X308665Y818979D01*
X311318Y821014D01*
X313353Y823667D01*
X314633Y826757D01*
X314902Y828802D01*
D02*
G37*
G36*
X300990D02*
X289618D01*
X289887Y826757D01*
X291167Y823667D01*
X293202Y821014D01*
X295855Y818979D01*
X297787Y818178D01*
X297695Y818564D01*
X297433Y819382D01*
X297119Y820144D01*
X296753Y820850D01*
X296336Y821499D01*
X295866Y822092D01*
X295345Y822628D01*
X300990Y822780D01*
Y828802D01*
D02*
G37*
G36*
X317500Y791141D02*
Y781050D01*
X327591D01*
X327366Y782764D01*
X326214Y785544D01*
X324382Y787932D01*
X321994Y789764D01*
X319214Y790916D01*
X317500Y791141D01*
D02*
G37*
G36*
X314960D02*
X313246Y790916D01*
X310466Y789764D01*
X308078Y787932D01*
X306246Y785544D01*
X305094Y782764D01*
X304869Y781050D01*
X314960D01*
Y791141D01*
D02*
G37*
G36*
X327591Y778510D02*
X317500D01*
Y768419D01*
X319214Y768644D01*
X321994Y769796D01*
X324382Y771628D01*
X326214Y774016D01*
X327366Y776796D01*
X327591Y778510D01*
D02*
G37*
G36*
X314960D02*
X304869D01*
X305094Y776796D01*
X306246Y774016D01*
X308078Y771628D01*
X310466Y769796D01*
X313246Y768644D01*
X314960Y768419D01*
Y778510D01*
D02*
G37*
G36*
X184494Y764794D02*
X176784D01*
Y755048D01*
X179832D01*
X182683Y755423D01*
X185340Y756524D01*
X187622Y758274D01*
X189372Y760556D01*
X189610Y761129D01*
X188868Y760986D01*
X187787Y760707D01*
X186809Y760378D01*
X185935Y759998D01*
X185163Y759568D01*
X184494Y759086D01*
Y764794D01*
D02*
G37*
G36*
X174244D02*
X160347D01*
X160555Y763213D01*
X161656Y760556D01*
X163406Y758274D01*
X165688Y756524D01*
X168345Y755423D01*
X171196Y755048D01*
X174244D01*
Y764794D01*
D02*
G37*
G36*
X297993Y739067D02*
X296560Y738878D01*
X294088Y737855D01*
X291966Y736226D01*
X290337Y734104D01*
X289314Y731632D01*
X289132Y730250D01*
X301752D01*
Y734605D01*
X294151D01*
X294992Y734714D01*
X295745Y735039D01*
X296408Y735580D01*
X296984Y736338D01*
X297471Y737313D01*
X297869Y738504D01*
X297993Y739067D01*
D02*
G37*
G36*
X298196Y587444D02*
X296151Y587175D01*
X293061Y585895D01*
X290408Y583860D01*
X288373Y581207D01*
X287093Y578117D01*
X286824Y576072D01*
X298196D01*
Y587444D01*
D02*
G37*
G36*
Y573532D02*
X286824D01*
X287093Y571487D01*
X288373Y568397D01*
X290408Y565744D01*
X293061Y563709D01*
X294675Y563040D01*
X294594Y563420D01*
X294354Y564245D01*
X294061Y565015D01*
X293714Y565731D01*
X293314Y566391D01*
X292861Y566996D01*
X292354Y567546D01*
X298196D01*
Y573532D01*
D02*
G37*
G36*
X286940Y446786D02*
X274320D01*
Y442430D01*
X281921D01*
X281080Y442322D01*
X280327Y441997D01*
X279664Y441456D01*
X279088Y440698D01*
X278601Y439723D01*
X278203Y438532D01*
X278079Y437969D01*
X279512Y438158D01*
X281984Y439181D01*
X284106Y440810D01*
X285735Y442932D01*
X286758Y445404D01*
X286940Y446786D01*
D02*
G37*
G36*
X271780D02*
X259160D01*
X259342Y445404D01*
X260365Y442932D01*
X261994Y440810D01*
X264116Y439181D01*
X266588Y438158D01*
X268021Y437969D01*
X267897Y438532D01*
X267499Y439723D01*
X267012Y440698D01*
X266436Y441456D01*
X265773Y441997D01*
X265020Y442322D01*
X264179Y442430D01*
X271780D01*
Y446786D01*
D02*
G37*
G36*
X370332Y291287D02*
Y277368D01*
X378132D01*
Y284988D01*
X379020Y284143D01*
X379944Y283388D01*
X380902Y282721D01*
X381894Y282143D01*
X382922Y281654D01*
X383351Y281493D01*
X383210Y281958D01*
X381795Y284606D01*
X379891Y286926D01*
X377570Y288831D01*
X374922Y290246D01*
X372050Y291117D01*
X370332Y291287D01*
D02*
G37*
G36*
X367792D02*
X366074Y291117D01*
X363202Y290246D01*
X360554Y288831D01*
X358233Y286926D01*
X356329Y284606D01*
X354914Y281958D01*
X354773Y281493D01*
X355202Y281654D01*
X356230Y282143D01*
X357222Y282721D01*
X358180Y283388D01*
X359104Y284143D01*
X359992Y284988D01*
Y277368D01*
X367792D01*
Y291287D01*
D02*
G37*
G36*
Y274828D02*
X359992D01*
Y267208D01*
X359104Y268053D01*
X358180Y268808D01*
X357222Y269475D01*
X356230Y270053D01*
X355202Y270542D01*
X354773Y270704D01*
X354914Y270238D01*
X356329Y267590D01*
X358233Y265270D01*
X360554Y263365D01*
X363202Y261950D01*
X366074Y261078D01*
X367792Y260909D01*
Y274828D01*
D02*
G37*
G36*
X378132D02*
X370332D01*
Y260909D01*
X372050Y261078D01*
X374922Y261950D01*
X377570Y263365D01*
X379891Y265270D01*
X381795Y267590D01*
X383210Y270238D01*
X383351Y270704D01*
X382922Y270542D01*
X381894Y270053D01*
X380902Y269475D01*
X379944Y268808D01*
X379020Y268053D01*
X378132Y267208D01*
Y274828D01*
D02*
G37*
G36*
X448310Y218567D02*
X437515D01*
Y207772D01*
X448310D01*
Y218567D01*
D02*
G37*
G36*
Y205232D02*
X437515D01*
Y194437D01*
X448310D01*
Y205232D01*
D02*
G37*
%LPD*%
D10*
X483870Y676656D02*
X567436D01*
Y549656D02*
X603758D01*
X567436Y524256D02*
X598932D01*
X611632Y511556D01*
X603758Y549656D02*
X611632Y557530D01*
Y506730D02*
X666750D01*
X668274Y508254D01*
X611632Y557530D02*
Y569722D01*
X616966Y575056D01*
X665988D01*
X483870Y829056D02*
X567436D01*
X483870Y803656D02*
X567436D01*
X483870Y778256D02*
X567436D01*
X483870Y752856D02*
X567436D01*
X483870Y727456D02*
X567436D01*
X483870Y702056D02*
X567436D01*
X483870Y651256D02*
X567436D01*
X483870Y625856D02*
X567436D01*
X482346Y498856D02*
X567436D01*
X482346Y473456D02*
X567436D01*
X482346Y448056D02*
X567436D01*
X482346Y422656D02*
X567436D01*
X482346Y397256D02*
X567436D01*
X482346Y371856D02*
X567436D01*
X349250Y448056D02*
X435864D01*
X482346D01*
X349250Y473456D02*
X394462D01*
X482346D01*
X234188Y524256D02*
X273050D01*
X234188Y498856D02*
X273050D01*
X165862Y276098D02*
Y456438D01*
X182880Y473456D01*
X273050D01*
Y288290D02*
X285242Y276098D01*
X719836Y854456D02*
X801116D01*
X719836Y829056D02*
X801116D01*
X719836Y803656D02*
X801116D01*
X719836Y778256D02*
X801116D01*
X719836Y752856D02*
X801116D01*
X719836Y727456D02*
X801116D01*
X719836Y702056D02*
X801116D01*
X719836Y676656D02*
X801116D01*
X719836Y600456D02*
X802132D01*
X719836Y575056D02*
X802132D01*
X719836Y549656D02*
X802132D01*
X719836Y524256D02*
X802132D01*
X719836Y498856D02*
X802132D01*
X719836Y473456D02*
X802132D01*
X719836Y448056D02*
X802132D01*
X719836Y422656D02*
X802132D01*
X719836Y397256D02*
X802132D01*
X719836Y371856D02*
X802132D01*
X474980Y206502D02*
Y254762D01*
X500380Y206502D02*
Y305562D01*
X369062Y276098D02*
X433070D01*
X449580Y259588D01*
Y206502D02*
Y259588D01*
X525780Y254762D02*
X545592D01*
X551180Y249174D01*
Y206502D02*
Y249174D01*
X174752Y625856D02*
X483870D01*
X133858Y584962D02*
X174752Y625856D01*
X133858Y188976D02*
Y584962D01*
X160274Y651256D02*
X483870D01*
X106680Y597662D02*
X160274Y651256D01*
X106680Y173990D02*
Y597662D01*
X551180Y170688D02*
Y206502D01*
X79502Y170434D02*
Y627634D01*
X576580Y151638D02*
Y206502D01*
X567436Y371856D02*
X601726D01*
X627380Y346202D01*
Y206502D02*
Y346202D01*
X754380Y206502D02*
Y268478D01*
X728980Y206502D02*
Y289306D01*
X703580Y206502D02*
Y304800D01*
X678180Y320802D02*
X698754Y341376D01*
X678180Y206502D02*
Y320802D01*
X667004Y371856D02*
X719836D01*
X652780Y357632D02*
X667004Y371856D01*
X652780Y206502D02*
Y357632D01*
X754380Y268478D02*
X767334Y281432D01*
X728980Y289306D02*
X739394Y299720D01*
X703580Y304800D02*
X717296Y318516D01*
X801370Y676402D02*
X843026D01*
X801370Y701802D02*
X863092D01*
X869188Y695706D01*
Y677164D02*
Y695706D01*
X801370Y727202D02*
X879602D01*
X894588Y712216D01*
Y677164D02*
Y712216D01*
X801370Y752602D02*
X903224D01*
X919988Y735838D01*
Y677164D02*
Y735838D01*
X801370Y778002D02*
X929894D01*
X945388Y762508D01*
Y677164D02*
Y762508D01*
X801370Y803402D02*
X943356D01*
X970788Y775970D01*
Y677164D02*
Y775970D01*
X801370Y828802D02*
X963676D01*
X996188Y796290D01*
Y677164D02*
Y796290D01*
X801370Y854202D02*
X995172D01*
X1021588Y827786D01*
Y677164D02*
Y827786D01*
X694436Y839216D02*
X704596Y829056D01*
X719836D01*
X517906Y900176D02*
X559562D01*
X559816Y899922D01*
X602234D02*
X621792Y919480D01*
Y982726D01*
X386080Y829056D02*
X483870D01*
X567436Y854456D02*
Y877062D01*
X590296Y899922D01*
X602234D01*
X559816D02*
X590296D01*
X723392Y938530D02*
Y982726D01*
X719836Y934974D02*
X723392Y938530D01*
X719836Y854456D02*
Y934974D01*
X697992Y937260D02*
Y982726D01*
X694436Y933704D02*
X697992Y937260D01*
X694436Y839216D02*
Y933704D01*
X802132Y549656D02*
X894334D01*
X698754Y341376D02*
X809244D01*
X927608Y600456D02*
X955548Y572516D01*
X802132Y600456D02*
X927608D01*
X908304Y575056D02*
X931418Y551942D01*
Y311404D02*
Y551942D01*
X901446Y281432D02*
X931418Y311404D01*
X802132Y575056D02*
X908304D01*
X767334Y281432D02*
X901446D01*
X894334Y549656D02*
X912114Y531876D01*
Y328168D02*
Y531876D01*
X739394Y299720D02*
X883666D01*
X912114Y328168D01*
X717296Y318516D02*
X854202D01*
X885444Y349758D01*
Y510286D01*
X871474Y524256D02*
X885444Y510286D01*
X802132Y524256D02*
X871474D01*
X834898Y397256D02*
X845820Y386334D01*
X809244Y341376D02*
X809498Y341630D01*
X802132Y397256D02*
X834898D01*
X809498Y341630D02*
X833120D01*
X845820Y354330D01*
Y386334D01*
X955548Y287020D02*
Y572516D01*
X133858Y188976D02*
X147574Y175260D01*
X106680Y173990D02*
X127508Y153162D01*
X533654D01*
X551180Y170688D01*
X79502Y170434D02*
X117602Y132334D01*
X557276D01*
X576580Y151638D01*
X512572Y175260D02*
X525780Y188468D01*
Y206502D01*
X147574Y175260D02*
X512572D01*
X275082Y82550D02*
Y98044D01*
X286766Y109728D01*
X791972D01*
X805180Y122936D01*
Y206502D01*
X273050Y448056D02*
X279299D01*
X299466Y276860D02*
Y574802D01*
X273050Y288290D02*
Y448056D01*
X298704Y276098D02*
X299466Y276860D01*
X285242Y276098D02*
X298704D01*
X369062D01*
X930402Y261874D02*
X955548Y287020D01*
X796290Y261874D02*
X930402D01*
X779780Y206502D02*
Y245364D01*
X796290Y261874D01*
X303022Y703580D02*
X308737Y709295D01*
X314986D01*
X331216Y725525D01*
Y747268D01*
X436372Y700532D02*
Y786638D01*
X453390Y803656D01*
X483870D01*
X347472Y700532D02*
X347726Y700786D01*
Y719836D01*
X356616Y728726D01*
Y747268D01*
X226822Y728980D02*
Y779272D01*
X190246Y703580D02*
X226822D01*
X46736D02*
X101346D01*
X46228Y704088D02*
X46736Y703580D01*
X175514Y766064D02*
X196977D01*
X206375Y775462D01*
Y790365D01*
X218650Y802640D01*
X155194Y816864D02*
X175514D01*
X143002Y804672D02*
X155194Y816864D01*
X143002Y742696D02*
Y804672D01*
Y742696D02*
X156718Y728980D01*
X226822D01*
X79502Y627634D02*
X126238Y674370D01*
X481584D01*
X483870Y676656D01*
X205994Y813333D02*
X217867Y830072D01*
X218650Y802640D02*
X302006D01*
X303022Y728980D02*
Y801624D01*
X302006Y802640D02*
X303022Y801624D01*
X302260Y830072D02*
X303022Y801624D01*
X96774Y856234D02*
Y914400D01*
X100838Y798322D02*
X139827Y837311D01*
X96266Y855726D02*
X96774Y856234D01*
X672592Y982726D02*
Y1025398D01*
X681736Y1034542D01*
X385953Y889254D02*
Y905256D01*
X506269Y921766D02*
X576326D01*
X101346Y703580D02*
Y747014D01*
X394462Y599186D02*
X395732Y600456D01*
X435864Y599948D02*
X436372Y600456D01*
X435356Y389128D02*
X443484Y397256D01*
X435356Y343154D02*
X450088Y328422D01*
X589280D01*
X443484Y397256D02*
X482346D01*
X435356Y343154D02*
Y389128D01*
X601980Y206502D02*
Y315722D01*
X589280Y328422D02*
X601980Y315722D01*
X184125Y791464D02*
X205994Y813333D01*
X200660Y837311D02*
X202882Y835089D01*
X139827Y837311D02*
X200660D01*
X218694Y890778D02*
Y914400D01*
Y890778D02*
X224282Y885190D01*
X258826D01*
D11*
X915416Y961136D02*
Y1002284D01*
X883158Y1034542D02*
X915416Y1002284D01*
X467106Y1007872D02*
X493776Y1034542D01*
X681736D01*
X883158D01*
X467106Y884936D02*
Y900176D01*
X385318Y886968D02*
X385953Y887603D01*
X302260Y886968D02*
X385318D01*
X638048Y1009904D02*
X647192Y1000760D01*
X597662Y1009904D02*
X638048D01*
X588518Y1000760D02*
X597662Y1009904D01*
X588518Y933958D02*
Y1000760D01*
X576326Y921766D02*
X588518Y933958D01*
X494411Y874903D02*
Y909908D01*
X82296Y855726D02*
X96266D01*
X494411Y909908D02*
X506269Y921766D01*
X508174Y923671D02*
X527638D01*
X529058Y922251D01*
X506269Y921766D02*
X508174Y923671D01*
X46228Y819658D02*
X82296Y855726D01*
X46228Y704088D02*
Y819658D01*
Y149098D02*
Y704088D01*
Y149098D02*
X84582Y110744D01*
X246888D01*
X253492Y104140D01*
Y82550D02*
Y104140D01*
X915416Y961136D02*
X1065022D01*
X1094232Y931926D01*
X719836Y625856D02*
X720852Y626872D01*
X1094232D02*
Y931926D01*
X720852Y626872D02*
X1094232D01*
X1057910Y53594D02*
X1094232Y89916D01*
X303784Y53594D02*
X1057910D01*
X296672Y60706D02*
X303784Y53594D01*
X1094232Y89916D02*
Y204978D01*
Y626872D01*
X296672Y60706D02*
Y82550D01*
X830580Y206502D02*
X1092708D01*
X1094232Y204978D01*
X915416Y897636D02*
X1020064D01*
X1060704Y856996D01*
Y668020D02*
Y856996D01*
X1043940Y651256D02*
X1060704Y668020D01*
X719836Y651256D02*
X1043940D01*
X719582Y651510D02*
X719836Y651256D01*
X567436Y600456D02*
X582422D01*
X633476Y651510D01*
X647192Y989838D02*
X648716Y988314D01*
Y655320D02*
Y899922D01*
X633476Y651510D02*
X719582D01*
X647192Y982726D02*
Y989838D01*
Y1000760D01*
X648716Y899922D02*
Y988314D01*
X332359Y310007D02*
X462153D01*
X474980Y297180D01*
Y254762D02*
Y297180D01*
X436372Y600456D02*
X567436D01*
X323850Y318516D02*
X332359Y310007D01*
X394462Y562356D02*
Y599186D01*
X353822Y600456D02*
X395732D01*
X435864Y536956D02*
Y599948D01*
X395732Y600456D02*
X436372D01*
X349250Y524256D02*
Y595884D01*
X353822Y600456D01*
X323850Y587756D02*
X336550Y600456D01*
X323850Y318516D02*
Y587756D01*
X336550Y600456D02*
X353822D01*
X588772Y575818D02*
X638810Y625856D01*
X479298Y575818D02*
X588772D01*
X665988Y600456D02*
Y619252D01*
X671576Y624840D01*
X668274Y533654D02*
X694690Y560070D01*
Y565859D01*
X694436Y566113D02*
X694690Y565859D01*
X694436Y566113D02*
Y609653D01*
X694690Y609907D01*
Y624840D01*
X638810Y625856D02*
X719836D01*
X385953Y887603D02*
Y889254D01*
X96266Y855726D02*
X475234D01*
X494411Y874903D01*
X385953Y889254D02*
X399161Y876046D01*
X458216D01*
X467106Y884936D01*
X559054Y943102D02*
Y978916D01*
X550418Y987552D02*
X559054Y978916D01*
X530352Y987552D02*
X550418D01*
X468630D02*
X504952D01*
X467106Y989076D02*
X468630Y987552D01*
X467106Y960120D02*
Y989076D01*
Y1007872D01*
Y900176D02*
Y960120D01*
X184912Y791464D02*
X185420Y791972D01*
X175514Y791464D02*
X184125D01*
X184912D01*
X203454Y830072D02*
X217867D01*
X200660Y832866D02*
X203454Y830072D01*
D12*
X96774Y914400D02*
D03*
X218694Y1036320D02*
D03*
X157734Y889000D02*
D03*
X96774Y1036320D02*
D03*
X218694Y914400D02*
D03*
D13*
X190246Y703580D02*
D03*
X101346D02*
D03*
X436372Y700532D02*
D03*
X347472D02*
D03*
X227330Y779780D02*
D03*
X316230D02*
D03*
X394462Y562356D02*
D03*
Y473456D02*
D03*
X435864Y536956D02*
D03*
Y448056D02*
D03*
X648716Y899922D02*
D03*
X559816D02*
D03*
X647954Y943102D02*
D03*
X559054D02*
D03*
D14*
X100838Y798322D02*
D03*
D15*
Y747522D02*
D03*
D16*
X303022Y703580D02*
D03*
X273050Y524256D02*
D03*
X567436Y854456D02*
D03*
D17*
X303022Y728980D02*
D03*
X226822D02*
D03*
Y703580D02*
D03*
X349250Y448056D02*
D03*
Y473456D02*
D03*
Y498856D02*
D03*
Y524256D02*
D03*
X273050Y448056D02*
D03*
Y473456D02*
D03*
Y498856D02*
D03*
X719836Y371856D02*
D03*
Y397256D02*
D03*
Y422656D02*
D03*
Y448056D02*
D03*
Y473456D02*
D03*
Y498856D02*
D03*
Y524256D02*
D03*
Y549656D02*
D03*
Y575056D02*
D03*
Y600456D02*
D03*
Y625856D02*
D03*
Y651256D02*
D03*
Y676656D02*
D03*
Y702056D02*
D03*
Y727456D02*
D03*
Y752856D02*
D03*
Y778256D02*
D03*
Y803656D02*
D03*
Y829056D02*
D03*
Y854456D02*
D03*
X567436Y371856D02*
D03*
Y397256D02*
D03*
Y422656D02*
D03*
Y448056D02*
D03*
Y473456D02*
D03*
Y498856D02*
D03*
Y524256D02*
D03*
Y549656D02*
D03*
Y575056D02*
D03*
Y600456D02*
D03*
Y625856D02*
D03*
Y651256D02*
D03*
Y676656D02*
D03*
Y702056D02*
D03*
Y727456D02*
D03*
Y752856D02*
D03*
Y778256D02*
D03*
Y803656D02*
D03*
Y829056D02*
D03*
D18*
X175514Y816864D02*
D03*
Y791464D02*
D03*
Y766064D02*
D03*
D19*
X356616Y747268D02*
D03*
X530352Y987552D02*
D03*
D20*
X331216Y747268D02*
D03*
X504952Y987552D02*
D03*
D21*
X830580Y206502D02*
D03*
X805180D02*
D03*
X779780D02*
D03*
X754380D02*
D03*
X728980D02*
D03*
X703580D02*
D03*
X678180D02*
D03*
X474980D02*
D03*
X525780D02*
D03*
X551180D02*
D03*
X576580D02*
D03*
X601980D02*
D03*
X627380D02*
D03*
X652780D02*
D03*
X500380D02*
D03*
X970788Y677164D02*
D03*
X945388D02*
D03*
X919988D02*
D03*
X894588D02*
D03*
X869188D02*
D03*
X996188D02*
D03*
X1021588D02*
D03*
X482346Y498856D02*
D03*
Y473456D02*
D03*
Y448056D02*
D03*
Y422656D02*
D03*
Y397256D02*
D03*
X483870Y829056D02*
D03*
Y752856D02*
D03*
Y727456D02*
D03*
Y702056D02*
D03*
Y676656D02*
D03*
Y651256D02*
D03*
Y778256D02*
D03*
Y803656D02*
D03*
X517906Y900176D02*
D03*
X467106D02*
D03*
X647192Y982726D02*
D03*
X672592D02*
D03*
X697992D02*
D03*
X723392D02*
D03*
X525780Y254762D02*
D03*
X500380Y305562D02*
D03*
X474980Y254762D02*
D03*
D22*
X449580Y206502D02*
D03*
X843788Y677164D02*
D03*
X621792Y982726D02*
D03*
D23*
X386080Y829056D02*
D03*
X802132Y600456D02*
D03*
X801370Y854202D02*
D03*
D24*
X385953Y905256D02*
D03*
X802132Y575056D02*
D03*
Y524256D02*
D03*
Y498856D02*
D03*
Y473456D02*
D03*
Y448056D02*
D03*
Y422656D02*
D03*
Y397256D02*
D03*
Y371856D02*
D03*
Y549656D02*
D03*
X801370Y676402D02*
D03*
Y701802D02*
D03*
Y727202D02*
D03*
Y752602D02*
D03*
Y778002D02*
D03*
Y803402D02*
D03*
Y828802D02*
D03*
D25*
X668274Y508254D02*
D03*
X665988Y575056D02*
D03*
D26*
X668274Y533654D02*
D03*
X665988Y600456D02*
D03*
D27*
X234188Y498856D02*
D03*
Y524256D02*
D03*
D28*
X611632Y557530D02*
D03*
Y506730D02*
D03*
D29*
X482346Y371856D02*
D03*
X483870Y625856D02*
D03*
D30*
X165862Y276098D02*
D03*
D31*
X369062D02*
D03*
D32*
X864616Y923036D02*
D03*
D33*
X915416Y961136D02*
D03*
Y897636D02*
D03*
D34*
X320802Y82550D02*
D03*
X229362D02*
D03*
D35*
X295402D02*
D03*
X275082D02*
D03*
X254762D02*
D03*
D36*
X479298Y575818D02*
D03*
X299466Y574802D02*
D03*
X217867Y830072D02*
D03*
X302260D02*
D03*
Y886968D02*
D03*
X258826Y885190D02*
D03*
M02*
